<?xml version="1.0" encoding="utf-8"?>
<!-- Generator: Adobe Illustrator 27.5.0, SVG Export Plug-In . SVG Version: 6.00 Build 0)  -->
<svg version="1.1" xmlns="http://www.w3.org/2000/svg" xmlns:xlink="http://www.w3.org/1999/xlink" x="0px" y="0px"
	 viewBox="0 0 500 500" style="enable-background:new 0 0 500 500;" xml:space="preserve">
<g id="Background_Complete">
	<g>
		<g>
			<rect x="350.491" y="264.679" style="fill:#E0E0E0;" width="102.833" height="194.387"/>
		</g>
		<g>
			<rect x="319.973" y="264.679" style="fill:#F5F5F5;" width="102.833" height="194.387"/>
		</g>
		<g>
			<g>
				<path style="fill:#E0E0E0;" d="M415.236,304.691h-88.267v-30.813h88.267V304.691z M328.054,303.606h86.098v-28.644h-86.098
					V303.606z"/>
			</g>
			<g>
				<path style="fill:#EBEBEB;" d="M383.501,280.56H359.9c-2.733,0-4.948-2.215-4.948-4.948v-1.192h33.497v1.192
					C388.449,278.344,386.234,280.56,383.501,280.56z"/>
			</g>
		</g>
		<g>
			<g>
				<path style="fill:#E0E0E0;" d="M415.236,343.831h-88.267v-30.813h88.267V343.831z M328.054,342.747h86.098v-28.644h-86.098
					V342.747z"/>
			</g>
			<g>
				<path style="fill:#EBEBEB;" d="M383.501,319.701H359.9c-2.733,0-4.948-2.215-4.948-4.948v-1.192h33.497v1.192
					C388.449,317.485,386.234,319.701,383.501,319.701z"/>
			</g>
		</g>
		<g>
			<g>
				<path style="fill:#E0E0E0;" d="M415.236,382.973h-88.267V352.16h88.267V382.973z M328.054,381.888h86.098v-28.644h-86.098
					V381.888z"/>
			</g>
			<g>
				<path style="fill:#EBEBEB;" d="M383.501,358.841H359.9c-2.733,0-4.948-2.215-4.948-4.948v-1.192h33.497v1.192
					C388.449,356.626,386.234,358.841,383.501,358.841z"/>
			</g>
		</g>
		<g>
			<g>
				<path style="fill:#E0E0E0;" d="M415.236,422.113h-88.267V391.3h88.267V422.113z M328.054,421.029h86.098v-28.644h-86.098
					V421.029z"/>
			</g>
			<g>
				<path style="fill:#EBEBEB;" d="M383.501,397.982H359.9c-2.733,0-4.948-2.215-4.948-4.948v-1.192h33.497v1.192
					C388.449,395.767,386.234,397.982,383.501,397.982z"/>
			</g>
		</g>
		<g>
			<rect x="315.412" y="257.403" style="fill:#EBEBEB;" width="111.695" height="9.683"/>
		</g>
		<g>
			<rect x="427.107" y="257.403" style="fill:#E0E0E0;" width="33.588" height="9.683"/>
		</g>
		<g>
			<rect x="319.973" y="459.066" style="fill:#E0E0E0;" width="5.404" height="9.929"/>
		</g>
		<g>
			<rect x="353.363" y="459.066" style="fill:#E0E0E0;" width="5.404" height="9.929"/>
		</g>
		<g>
			<rect x="414.353" y="459.066" style="fill:#E0E0E0;" width="5.404" height="9.929"/>
		</g>
		<g>
			<rect x="444.848" y="459.066" style="fill:#E0E0E0;" width="5.404" height="9.929"/>
		</g>
	</g>
	<g>
		<polygon style="fill:#E0E0E0;" points="415.183,231.553 425.592,258.182 419.121,258.153 413.935,241.788 		"/>
		<g>
			<g>
				<polygon style="fill:#EBEBEB;" points="379.638,206.949 376.06,257.971 413,258.743 417.157,206.949 				"/>
				<polygon style="fill:#FAFAFA;" points="383.334,211.057 380.355,253.527 407.816,254.813 411.653,210.806 				"/>
			</g>
			<polygon style="fill:#E0E0E0;" points="389.36,217.063 387.132,246.915 402.28,246.915 404.953,217.063 			"/>
		</g>
	</g>
	<g>
		<g>
			<g>
				<g>
					<g>
						<g>
							
								<rect x="51.144" y="98.369" transform="matrix(0.9412 -0.3378 0.3378 0.9412 -36.331 34.1814)" style="fill:#EBEBEB;" width="57.784" height="46.196"/>
						</g>
					</g>
					<g>
						<g>
							<g>
								<path style="fill:#E0E0E0;" d="M99.425,89.966c0,0-0.089,0.036-0.259,0.099c-0.174,0.064-0.427,0.157-0.759,0.279
									c-0.672,0.244-1.66,0.603-2.946,1.07c-2.577,0.932-6.344,2.293-11.12,4.02c-9.548,3.44-23.126,8.333-39.268,14.149
									l0.061-0.128c4.648,12.939,9.977,27.774,15.616,43.471l0.002,0.005l-0.143-0.068c20.137-7.221,38.852-13.931,54.392-19.504
									l-0.056,0.119c-4.684-13.108-8.566-23.972-11.279-31.565c-1.353-3.801-2.415-6.782-3.139-8.817
									c-0.36-1.016-0.635-1.795-0.823-2.325C99.518,90.245,99.425,89.966,99.425,89.966s0.101,0.261,0.291,0.78
									c0.191,0.524,0.471,1.295,0.837,2.301c0.733,2.027,1.808,4.996,3.177,8.781c2.74,7.598,6.66,18.47,11.39,31.587l0.032,0.088
									l-0.088,0.032c-15.537,5.583-34.247,12.305-54.38,19.539l-0.106,0.038l-0.038-0.106l-0.002-0.005
									c-5.631-15.7-10.953-30.538-15.594-43.479l-0.034-0.095l0.094-0.034c16.181-5.786,29.793-10.654,39.363-14.076
									c4.774-1.702,8.54-3.044,11.117-3.962c1.282-0.454,2.266-0.804,2.936-1.041c0.329-0.115,0.579-0.203,0.752-0.264
									C99.341,89.992,99.425,89.966,99.425,89.966z"/>
							</g>
						</g>
					</g>
				</g>
			</g>
		</g>
		<g>
			<g>
				
					<rect x="53.138" y="101.29" transform="matrix(0.9412 -0.3378 0.3378 0.9412 -36.3373 34.17)" style="fill:#F5F5F5;" width="53.724" height="40.38"/>
			</g>
		</g>
		<g>
			<g>
				<polygon style="fill:#E0E0E0;" points="61.539,149.558 70.72,119.595 86.965,130.448 91.549,119.883 112.104,131.408 				"/>
			</g>
		</g>
		<g>
			<g>
				<g>
					<g>
						<path style="fill:#E0E0E0;" d="M85.265,111.107c0.789,2.199-0.353,4.621-2.552,5.41c-2.199,0.789-4.621-0.353-5.41-2.552
							c-0.789-2.199,0.353-4.621,2.552-5.41C82.054,107.765,84.476,108.908,85.265,111.107z"/>
					</g>
				</g>
			</g>
		</g>
	</g>
	<g>
		<g>
			<g>
				<g>
					<g>
						<g>
							
								<rect x="120.297" y="210.65" transform="matrix(0.1699 -0.9855 0.9855 0.1699 -120.0459 355.3705)" style="fill:#EBEBEB;" width="61.222" height="76.578"/>
						</g>
					</g>
					<g>
						<g>
							<g>
								<path style="fill:#E0E0E0;" d="M193.84,225.276c0,0-0.125-0.016-0.363-0.055c-0.243-0.04-0.595-0.098-1.057-0.174
									c-0.934-0.157-2.308-0.389-4.096-0.69c-3.581-0.609-8.814-1.499-15.449-2.627c-13.257-2.268-32.11-5.495-54.523-9.33
									l0.154-0.109c-3.09,17.957-6.633,38.544-10.382,60.328l-0.001,0.006l-0.121-0.172c27.937,4.825,53.901,9.308,75.461,13.032
									l-0.143,0.101c3.16-18.174,5.778-33.238,7.608-43.765c0.922-5.267,1.645-9.397,2.138-12.217
									c0.249-1.406,0.439-2.485,0.569-3.218C193.765,225.657,193.84,225.276,193.84,225.276s-0.054,0.367-0.174,1.089
									c-0.122,0.729-0.303,1.802-0.537,3.2c-0.478,2.816-1.178,6.941-2.071,12.201c-1.803,10.551-4.383,25.649-7.495,43.864
									l-0.021,0.122l-0.122-0.021c-21.562-3.709-47.529-8.176-75.469-12.982l-0.147-0.025l0.025-0.146l0.001-0.007
									c3.76-21.783,7.313-42.368,10.413-60.323l0.023-0.131l0.131,0.023c22.438,3.895,41.313,7.172,54.585,9.476
									c6.617,1.156,11.836,2.067,15.407,2.691c1.775,0.313,3.138,0.553,4.065,0.717c0.455,0.082,0.801,0.144,1.04,0.187
									C193.726,225.251,193.84,225.276,193.84,225.276z"/>
							</g>
						</g>
					</g>
				</g>
			</g>
		</g>
		<g>
			<g>
				
					<rect x="124.102" y="213.331" transform="matrix(0.1699 -0.9855 0.9855 0.1699 -120.0783 355.3152)" style="fill:#F5F5F5;" width="53.514" height="71.198"/>
			</g>
		</g>
		<g>
			<g>
				<polygon style="fill:#E0E0E0;" points="111.232,269.252 141.388,240.695 153.034,263.82 165.22,254.631 181.396,281.345 				"/>
			</g>
		</g>
		<g>
			<g>
				<g>
					<g>
						<path style="fill:#E0E0E0;" d="M163.705,240.407c-0.526,3.051-3.426,5.098-6.477,4.572c-3.051-0.526-5.098-3.425-4.572-6.477
							c0.526-3.051,3.425-5.098,6.477-4.572C162.184,234.456,164.231,237.356,163.705,240.407z"/>
					</g>
				</g>
			</g>
		</g>
	</g>
	<g>
		<g>
			<g>
				<g>
					<g>
						<g>
							
								<rect x="196.55" y="57.246" transform="matrix(0.9984 -0.056 0.056 0.9984 -3.9637 12.5163)" style="fill:#EBEBEB;" width="49.231" height="39.359"/>
						</g>
					</g>
					<g>
						<g>
							<g>
								<path style="fill:#E0E0E0;" d="M244.639,55.897c0,0-0.081,0.008-0.236,0.018c-0.158,0.01-0.387,0.024-0.687,0.043
									c-0.608,0.036-1.502,0.09-2.666,0.16c-2.331,0.136-5.738,0.335-10.057,0.587c-8.632,0.495-20.909,1.199-35.503,2.036
									l0.081-0.09c0.66,11.695,1.416,25.104,2.216,39.292l0,0.004l-0.101-0.09c18.198-1.016,35.111-1.959,49.154-2.743
									l-0.075,0.084c-0.647-11.841-1.184-21.657-1.559-28.516c-0.184-3.432-0.328-6.124-0.426-7.962
									c-0.048-0.917-0.084-1.62-0.109-2.098C244.647,56.147,244.639,55.897,244.639,55.897s0.019,0.237,0.048,0.707
									c0.029,0.474,0.071,1.172,0.126,2.082c0.108,1.833,0.265,4.519,0.466,7.942c0.396,6.87,0.962,16.701,1.644,28.561
									l0.005,0.079l-0.079,0.005c-14.043,0.793-30.955,1.748-49.153,2.775l-0.096,0.005l-0.005-0.095l0-0.004
									c-0.793-14.189-1.542-27.598-2.196-39.293l-0.005-0.086l0.085-0.005c14.619-0.803,26.916-1.479,35.563-1.953
									c4.312-0.232,7.713-0.416,10.04-0.541c1.157-0.061,2.046-0.107,2.65-0.139c0.297-0.015,0.522-0.026,0.678-0.033
									C244.564,55.898,244.639,55.897,244.639,55.897z"/>
							</g>
						</g>
					</g>
				</g>
			</g>
		</g>
		<g>
			<g>
				
					<rect x="198.247" y="59.725" transform="matrix(0.9984 -0.056 0.056 0.9984 -3.9638 12.5143)" style="fill:#F5F5F5;" width="45.772" height="34.403"/>
			</g>
		</g>
		<g>
			<g>
				<polygon style="fill:#E0E0E0;" points="199.247,95.384 214.01,73.137 224.648,85.94 230.953,78.423 244.947,92.819 				"/>
			</g>
		</g>
		<g>
			<g>
				<g>
					<g>
						<path style="fill:#E0E0E0;" d="M227.948,69.731c0.112,1.987-1.409,3.689-3.396,3.8c-1.987,0.112-3.689-1.409-3.8-3.396
							c-0.112-1.987,1.409-3.689,3.396-3.8C226.135,66.223,227.837,67.744,227.948,69.731z"/>
					</g>
				</g>
			</g>
		</g>
	</g>
</g>
<g id="Background_Simple" style="display:none;">
	<path style="display:inline;fill:#EBEBEB;" d="M411.471,78.023l-12.221-19.887c-22.188-22.552-56.17-32.79-87.123-26.248
		s-57.886,29.656-69.05,59.258c-6.565,17.409-8.4,37.454-20.859,51.272c-16.215,17.984-43.744,18.549-67.948,17.804
		c-24.204-0.745-51.751-0.11-67.887,17.945c-10.106,11.308-13.318,27.388-12.503,42.531c2.157,40.093,30.449,75.941,66.429,93.76
		c35.98,17.819,78.342,19.415,117.72,11.576c55.164-10.981,107.624-41.136,139.157-87.712
		C428.72,191.748,436.7,128.293,411.471,78.023z"/>
</g>
<g id="Floor">
	<g>
		<path style="fill:#263238;" d="M467.21,468.635c0,0.144-96.874,0.26-216.345,0.26c-119.514,0-216.366-0.117-216.366-0.26
			c0-0.144,96.853-0.26,216.366-0.26C370.337,468.374,467.21,468.491,467.21,468.635z"/>
	</g>
</g>
<g id="Pictures">
	<g>
		<g>
			<g>
				<g>
					<g>
						<g>
							
								<rect x="106.819" y="109.736" transform="matrix(0.9909 -0.1346 0.1346 0.9909 -18.3045 21.8664)" style="fill:#EBEBEB;" width="91.522" height="73.169"/>
						</g>
					</g>
					<g>
						<g>
							<g>
								<path style="fill:#263238;" d="M193.001,103.91c0,0-0.149,0.026-0.434,0.068c-0.291,0.042-0.713,0.102-1.267,0.181
									c-1.121,0.157-2.77,0.387-4.917,0.687c-4.3,0.594-10.585,1.462-18.552,2.563c-15.925,2.182-38.574,5.286-65.498,8.976
									l0.136-0.179c2.936,21.578,6.303,46.316,9.865,72.493l0.001,0.008l-0.2-0.152c33.577-4.549,64.781-8.777,90.693-12.288
									l-0.126,0.166c-2.936-21.85-5.369-39.961-7.069-52.618c-0.844-6.334-1.506-11.302-1.957-14.694
									c-0.222-1.692-0.393-2.99-0.509-3.873C193.052,104.371,193.001,103.91,193.001,103.91s0.07,0.437,0.193,1.304
									c0.123,0.875,0.303,2.162,0.539,3.84c0.468,3.382,1.154,8.335,2.028,14.651c1.74,12.674,4.23,30.809,7.234,52.689
									l0.02,0.146l-0.147,0.02c-25.91,3.528-57.111,7.776-90.685,12.347l-0.176,0.024l-0.024-0.176l-0.001-0.008
									c-3.549-26.179-6.903-50.919-9.828-72.498l-0.021-0.158l0.158-0.021c26.975-3.631,49.666-6.685,65.621-8.833
									c7.957-1.063,14.234-1.9,18.528-2.474c2.135-0.282,3.776-0.498,4.891-0.645c0.548-0.07,0.964-0.124,1.252-0.161
									C192.862,103.922,193.001,103.91,193.001,103.91z"/>
							</g>
						</g>
					</g>
				</g>
			</g>
		</g>
		<g>
			<g>
				
					<rect x="109.975" y="114.35" transform="matrix(0.9909 -0.1346 0.1346 0.9909 -18.3062 21.8586)" style="fill:#E8505B;" width="85.092" height="63.957"/>
			</g>
		</g>
		<g>
			<g>
				<polygon style="fill:#E8505B;" points="114.665,183.742 138.765,140.349 160.355,162.517 170.939,147.661 198.984,172.29 				
					"/>
			</g>
		</g>
		<g>
			<g>
				<g>
					<g>
						<path style="fill:#E8505B;" d="M164.097,131.993c0.498,3.667-2.07,7.043-5.737,7.541c-3.667,0.498-7.043-2.071-7.541-5.737
							c-0.498-3.667,2.071-7.043,5.737-7.541C160.223,125.758,163.599,128.327,164.097,131.993z"/>
					</g>
				</g>
			</g>
		</g>
		<g style="opacity:0.4;">
			<g>
				<polygon points="114.665,183.742 138.765,140.349 160.355,162.517 170.939,147.661 198.984,172.29 				"/>
			</g>
		</g>
		<g style="opacity:0.4;">
			<g>
				<g>
					<g>
						<path d="M164.097,131.993c0.498,3.667-2.07,7.043-5.737,7.541c-3.667,0.498-7.043-2.071-7.541-5.737
							c-0.498-3.667,2.071-7.043,5.737-7.541C160.223,125.758,163.599,128.327,164.097,131.993z"/>
					</g>
				</g>
			</g>
		</g>
	</g>
	<g>
		<g>
			<g>
				<g>
					<g>
						<g>
							
								<rect x="117.634" y="32.35" transform="matrix(0.3242 -0.946 0.946 0.3242 36.4547 177.0702)" style="fill:#EBEBEB;" width="49.041" height="61.342"/>
						</g>
					</g>
					<g>
						<g>
							<g>
								<path style="fill:#263238;" d="M179.118,49.767c0,0-0.097-0.029-0.281-0.09c-0.187-0.063-0.458-0.153-0.813-0.272
									c-0.719-0.243-1.776-0.601-3.152-1.067c-2.755-0.937-6.78-2.306-11.884-4.042c-10.196-3.48-24.696-8.43-41.934-14.313
									l0.135-0.066c-4.728,13.809-10.148,29.64-15.884,46.392l-0.002,0.005l-0.074-0.151
									c21.481,7.369,41.445,14.217,58.023,19.904l-0.126,0.061c4.81-13.972,8.797-25.552,11.583-33.645
									c1.399-4.048,2.496-7.223,3.245-9.39c0.376-1.081,0.663-1.91,0.859-2.473C179.011,50.059,179.118,49.767,179.118,49.767
									s-0.089,0.283-0.276,0.839c-0.19,0.561-0.468,1.386-0.832,2.463c-0.736,2.167-1.814,5.34-3.189,9.386
									c-2.768,8.115-6.728,19.728-11.507,33.737l-0.032,0.094l-0.094-0.032c-16.581-5.676-36.55-12.511-58.036-19.866
									l-0.113-0.039l0.039-0.113l0.002-0.005c5.744-16.749,11.173-32.578,15.908-46.384l0.035-0.101l0.101,0.035
									c17.251,5.934,31.762,10.927,41.965,14.437c5.086,1.756,9.098,3.14,11.843,4.088c1.364,0.473,2.412,0.837,3.124,1.084
									c0.349,0.123,0.615,0.216,0.798,0.28C179.032,49.733,179.118,49.767,179.118,49.767z"/>
							</g>
						</g>
					</g>
				</g>
			</g>
		</g>
		<g>
			<g>
				
					<rect x="120.684" y="34.492" transform="matrix(0.3242 -0.946 0.946 0.3242 36.4414 177.0256)" style="fill:#E8505B;" width="42.867" height="57.032"/>
			</g>
		</g>
		<g>
			<g>
				<polygon style="fill:#E8505B;" points="108.193,74.04 135.674,55.291 141.943,75.061 152.75,69.344 162.145,92.528 				"/>
			</g>
		</g>
		<g>
			<g>
				<g>
					<g>
						<path style="fill:#E8505B;" d="M153.361,57.901c-0.804,2.346-3.358,3.596-5.704,2.792c-2.346-0.804-3.596-3.358-2.792-5.704
							c0.804-2.346,3.358-3.596,5.704-2.792C152.915,53.001,154.165,55.555,153.361,57.901z"/>
					</g>
				</g>
			</g>
		</g>
		<g style="opacity:0.4;">
			<g>
				<polygon points="108.193,74.04 135.674,55.291 141.943,75.061 152.75,69.344 162.145,92.528 				"/>
			</g>
		</g>
		<g style="opacity:0.4;">
			<g>
				<g>
					<g>
						<path d="M153.361,57.901c-0.804,2.346-3.358,3.596-5.704,2.792c-2.346-0.804-3.596-3.358-2.792-5.704
							c0.804-2.346,3.358-3.596,5.704-2.792C152.915,53.001,154.165,55.555,153.361,57.901z"/>
					</g>
				</g>
			</g>
		</g>
	</g>
</g>
<g id="Characters">
	<g>
		<g>
			<g>
				<path style="fill:#EB996E;" d="M337.691,158.305l17.711,17.885l31.629-35.554l13.013,7.716l-28.058,45.706
					c-2.953,4.605-7.738,7.724-13.144,8.568l0,0c-6.386,0.997-12.844-1.302-17.164-6.109l-19.538-21.739L337.691,158.305z"/>
				<g>
					<path style="fill:#D1734A;" d="M356.35,187.677c-0.096,0.079-1.55-2.393-1.794-5.842c-0.277-3.447,0.79-6.109,0.897-6.045
						c0.163,0.037-0.648,2.681-0.377,6.006C355.306,185.124,356.504,187.616,356.35,187.677z"/>
				</g>
			</g>
			<g>
				<g>
					<path style="fill:#263238;" d="M401.552,111.112c0.072,0,0.111,0.928,0.116,2.43c0.005,1.501-0.024,3.576-0.089,5.867
						c-0.064,2.292-0.152,4.366-0.241,5.866c-0.089,1.5-0.181,2.426-0.253,2.424c-0.072-0.002-0.111-0.932-0.116-2.434
						c-0.005-1.501,0.024-3.575,0.089-5.864c0.064-2.289,0.152-4.361,0.241-5.861C401.389,112.04,401.48,111.112,401.552,111.112z"
						/>
				</g>
				<g>
					<path style="fill:#263238;" d="M397.085,127.079c-0.106,0.098-1.575-1.326-3.282-3.178c-1.707-1.853-3.005-3.434-2.899-3.531
						c0.106-0.097,1.575,1.325,3.282,3.179C395.893,125.4,397.19,126.981,397.085,127.079z"/>
				</g>
				<g>
					<path style="fill:#263238;" d="M410.337,120.03c0.112,0.09-1.035,1.703-2.562,3.602c-1.528,1.9-2.856,3.366-2.969,3.276
						c-0.112-0.09,1.035-1.703,2.563-3.603C408.896,121.407,410.225,119.94,410.337,120.03z"/>
				</g>
				<g>
					<path style="fill:#EB996E;" d="M405.563,131.017c1.143-1.248,2.286-2.496,3.428-3.744c0.129-0.141,0.267-0.287,0.449-0.342
						c0.304-0.091,0.628,0.108,0.815,0.365c0.492,0.677,0.29,1.641-0.115,2.373c-0.405,0.732-0.991,1.37-1.276,2.157
						c-0.262,0.723-0.249,1.513-0.417,2.263c-0.168,0.75-0.603,1.531-1.346,1.728"/>
					<path style="fill:#263238;" d="M405.939,148.939h-30.069c-1.168,0-2.115-0.947-2.115-2.115V132.8
						c0-1.168,0.947-2.115,2.115-2.115h30.069c1.168,0,2.115,0.947,2.115,2.115v14.024
						C408.053,147.992,407.107,148.939,405.939,148.939z"/>
					<g>
						<path style="fill:#EB996E;" d="M409.547,135.045c-1.175,0.621-2.349,1.242-3.524,1.863c-0.393,0.208-0.79,0.418-1.128,0.707
							c-0.338,0.289-0.617,0.667-0.707,1.102c-0.071,0.345,0.005,0.75,0.291,0.955c0.309,0.221,0.734,0.138,1.101,0.038
							c1.6-0.436,3.166-1.015,4.628-1.799c0.483-0.259,0.978-0.564,1.228-1.051c0.15-0.292,0.197-0.646,0.08-0.952
							c-0.147-0.386-0.53-0.644-0.93-0.749c-0.4-0.105-0.821-0.08-1.233-0.055"/>
						<path style="fill:#EB996E;" d="M409.238,137.86c-1.175,0.621-2.349,1.242-3.524,1.863c-0.393,0.208-0.79,0.418-1.128,0.707
							c-0.338,0.289-0.617,0.667-0.707,1.102c-0.071,0.345,0.248,0.75,0.534,0.955c0.309,0.221,0.492,0.138,0.858,0.038
							c1.6-0.436,3.166-1.015,4.628-1.799c0.483-0.259,0.978-0.564,1.228-1.051c0.15-0.292,0.197-0.646,0.08-0.952
							c-0.147-0.386-0.53-0.644-0.93-0.748c-0.4-0.105-0.821-0.08-1.233-0.055"/>
						<g>
							<g>
								<path style="fill:#EB996E;" d="M409.354,135.065c-0.981,0.482-1.962,0.963-2.943,1.445
									c-0.508,0.249-1.025,0.505-1.438,0.891c-0.414,0.387-0.716,0.932-0.677,1.497c0.039,0.565,0.497,1.112,1.064,1.124"/>
							</g>
							<g>
								<g>
									<path style="fill:#D1734A;" d="M405.359,140.022c0.002,0.038-0.126,0.099-0.366,0.049
										c-0.234-0.049-0.568-0.241-0.784-0.632c-0.231-0.387-0.248-0.993,0.001-1.509c0.235-0.528,0.714-0.971,1.237-1.276
										c2.097-1.089,3.823-1.733,3.907-1.59c0.094,0.163-1.574,1.103-3.577,2.14c-0.959,0.51-1.414,1.451-1.158,2.041
										C404.854,139.874,405.375,139.937,405.359,140.022z"/>
								</g>
							</g>
						</g>
						<g>
							<g>
								<path style="fill:#D1734A;" d="M404.778,142.618c-0.026,0.034-0.156-0.006-0.365-0.132
									c-0.199-0.133-0.511-0.329-0.746-0.767c-0.113-0.217-0.177-0.521-0.104-0.826c0.069-0.31,0.277-0.592,0.522-0.789
									c0.498-0.411,1.115-0.59,1.697-0.817c2.391-0.89,4.379-1.477,4.44-1.311c0.062,0.166-1.826,1.022-4.216,1.912
									c-0.602,0.229-1.177,0.395-1.555,0.679c-0.389,0.271-0.485,0.646-0.368,0.973
									C404.368,142.199,404.867,142.54,404.778,142.618z"/>
							</g>
						</g>
					</g>
					<g>
						<path style="fill:#EB996E;" d="M409.534,140.71c-1.175,0.621-2.156,1.184-3.33,1.805c-0.393,0.208-0.789,0.418-1.128,0.707
							c-0.338,0.289-0.617,0.667-0.707,1.102c-0.071,0.345,0.005,0.75,0.291,0.955c0.309,0.221,0.664,0.506,1.353,0.198
							c1.514-0.676,2.914-1.176,4.376-1.959c0.483-0.259,0.978-0.564,1.228-1.051c0.15-0.292,0.197-0.646,0.08-0.952
							c-0.147-0.386-0.53-0.644-0.93-0.749C410.367,140.66,409.946,140.684,409.534,140.71"/>
						<g>
							<g>
								<g>
									<path style="fill:#D1734A;" d="M405.539,145.629c0.002,0.038-0.126,0.099-0.366,0.049
										c-0.234-0.049-0.568-0.241-0.784-0.632c-0.231-0.387-0.248-0.993,0.001-1.509c0.235-0.528,0.714-0.971,1.237-1.276
										c2.097-1.089,3.823-1.733,3.907-1.59c0.094,0.163-1.574,1.103-3.577,2.14c-0.959,0.51-1.414,1.451-1.158,2.041
										C405.034,145.48,405.556,145.543,405.539,145.629z"/>
								</g>
							</g>
						</g>
					</g>
					<path style="fill:#FAFAFA;" d="M379.362,138.873c0,0.798-0.647,1.445-1.445,1.445c-0.798,0-1.445-0.647-1.445-1.445
						c0-0.798,0.647-1.445,1.445-1.445C378.716,137.429,379.362,138.075,379.362,138.873z"/>
				</g>
			</g>
		</g>
		<g>
			<g>
				<g>
					<g>
						<path style="fill:#E8505B;" d="M280.13,437.697l0.859,20.207c0,0-20.251,7.66-20.457,11.41l39.241-0.258l-0.046-31.541
							L280.13,437.697z"/>
					</g>
					<g style="opacity:0.6;">
						<g>
							<path style="fill:#FFFFFF;" d="M293.112,456.125c0.761,0.203,1.291,1.053,1.12,1.822c-0.171,0.768-1.031,1.315-1.796,1.126
								c-0.764-0.189-1.432-1.191-1.176-1.935c0.256-0.744,1.301-1.331,1.998-0.964"/>
						</g>
					</g>
					<g style="opacity:0.6;">
						<path style="fill:#FFFFFF;" d="M299.774,469.056l-0.129-3.179l-37.576,1.436c0,0-1.742,0.772-1.536,2.001L299.774,469.056z"/>
					</g>
					<g>
						<g>
							<path style="fill:#263238;" d="M280.352,457.709c0.008,0.192,0.966,0.272,1.913,0.882c0.963,0.585,1.454,1.412,1.63,1.335
								c0.176-0.039-0.117-1.182-1.276-1.901C281.466,457.297,280.309,457.534,280.352,457.709z"/>
						</g>
					</g>
					<g>
						<g>
							<path style="fill:#263238;" d="M276.247,459.439c-0.043,0.186,0.789,0.507,1.445,1.313c0.68,0.787,0.85,1.662,1.04,1.652
								c0.18,0.029,0.306-1.094-0.529-2.081C277.378,459.329,276.25,459.256,276.247,459.439z"/>
						</g>
					</g>
					<g>
						<g>
							<path style="fill:#263238;" d="M273.942,464.38c0.174,0.04,0.435-0.92-0.064-1.966c-0.491-1.05-1.398-1.458-1.478-1.298
								c-0.107,0.158,0.478,0.717,0.875,1.583C273.691,463.555,273.751,464.362,273.942,464.38z"/>
						</g>
					</g>
					<g>
						<g>
							<path style="fill:#263238;" d="M280.667,453.082c0.082,0.174,0.959-0.096,2.042-0.03c1.085,0.044,1.93,0.402,2.029,0.238
								c0.11-0.139-0.717-0.843-1.995-0.904C281.467,452.316,280.572,452.932,280.667,453.082z"/>
						</g>
					</g>
				</g>
				<g style="opacity:0.3;">
					<polygon points="280.305,441.699 280.454,445.301 299.739,444.998 299.743,440.84 					"/>
				</g>
				<g>
					<g>
						<path style="fill:#263238;" d="M280.569,449.002c-0.002,0.079,0.757,0.193,1.965-0.023c0.602-0.108,1.31-0.31,2.052-0.645
							c0.37-0.168,0.749-0.369,1.124-0.606c0.18-0.117,0.394-0.236,0.591-0.466c0.211-0.201,0.328-0.71,0.081-1.02
							c-0.203-0.3-0.559-0.428-0.843-0.432c-0.289-0.008-0.523,0.052-0.736,0.107c-0.436,0.109-0.845,0.257-1.219,0.427
							c-0.748,0.346-1.354,0.781-1.804,1.201c-0.905,0.849-1.211,1.567-1.145,1.604c0.087,0.063,0.526-0.54,1.448-1.242
							c0.46-0.349,1.048-0.711,1.746-0.999c0.35-0.142,0.727-0.265,1.126-0.355c0.415-0.112,0.768-0.117,0.876,0.067
							c0.039,0.07,0.044,0.098-0.042,0.22c-0.089,0.113-0.257,0.224-0.434,0.34c-0.346,0.229-0.694,0.428-1.034,0.6
							c-0.682,0.344-1.335,0.58-1.895,0.741C281.305,448.841,280.565,448.898,280.569,449.002z"/>
					</g>
				</g>
				<g>
					<g>
						<path style="fill:#263238;" d="M280.82,449.275c0.068,0.029,0.444-0.66,0.506-1.902c0.029-0.616-0.04-1.361-0.282-2.15
							c-0.123-0.393-0.29-0.796-0.509-1.19c-0.232-0.386-0.516-0.904-1.26-0.984c-0.388-0.012-0.709,0.293-0.817,0.553
							c-0.128,0.266-0.152,0.494-0.197,0.722c-0.069,0.459-0.058,0.908,0.007,1.324c0.129,0.835,0.476,1.527,0.853,2.025
							c0.774,1.012,1.575,1.236,1.59,1.171c0.063-0.097-0.607-0.462-1.2-1.436c-0.292-0.48-0.554-1.113-0.634-1.843
							c-0.041-0.363-0.038-0.748,0.029-1.136c0.059-0.418,0.213-0.755,0.369-0.713c0.195-0.004,0.529,0.308,0.692,0.639
							c0.204,0.351,0.366,0.709,0.494,1.062c0.251,0.707,0.362,1.386,0.394,1.958C280.916,448.528,280.716,449.247,280.82,449.275z"
							/>
					</g>
				</g>
			</g>
			<g>
				<g>
					<g>
						<path style="fill:#E8505B;" d="M351.528,437.112l-0.369,20.222c0,0,20.431,7.166,20.727,10.91l-39.236,0.693l-0.719-31.533
							L351.528,437.112z"/>
					</g>
					<g style="opacity:0.6;">
						<g>
							<path style="fill:#FFFFFF;" d="M338.997,455.849c-0.756,0.221-1.265,1.084-1.076,1.848c0.19,0.764,1.063,1.29,1.822,1.082
								c0.759-0.208,1.403-1.225,1.129-1.963c-0.274-0.738-1.333-1.299-2.021-0.916"/>
						</g>
					</g>
					<g style="opacity:0.6;">
						<path style="fill:#FFFFFF;" d="M332.651,468.938l0.052-3.181l37.599,0.525c0,0,1.76,0.729,1.585,1.963L332.651,468.938z"/>
					</g>
					<g>
						<g>
							<path style="fill:#263238;" d="M351.792,457.123c-0.003,0.192-0.959,0.296-1.891,0.928c-0.948,0.608-1.42,1.447-1.597,1.374
								c-0.177-0.034,0.088-1.185,1.23-1.931C350.668,456.739,351.83,456.947,351.792,457.123z"/>
						</g>
					</g>
					<g>
						<g>
							<path style="fill:#263238;" d="M355.937,458.753c0.047,0.185-0.777,0.525-1.413,1.347c-0.661,0.803-0.809,1.682-1,1.677
								c-0.18,0.033-0.332-1.087,0.479-2.093C354.804,458.671,355.93,458.57,355.937,458.753z"/>
						</g>
					</g>
					<g>
						<g>
							<path style="fill:#263238;" d="M358.362,463.637c-0.173,0.044-0.457-0.909,0.017-1.967c0.466-1.062,1.362-1.491,1.446-1.333
								c0.111,0.156-0.461,0.729-0.836,1.604C358.592,462.806,358.552,463.615,358.362,463.637z"/>
						</g>
					</g>
					<g>
						<g>
							<path style="fill:#263238;" d="M351.365,452.506c-0.077,0.176-0.961-0.073-2.042,0.02c-1.083,0.071-1.92,0.449-2.022,0.287
								c-0.113-0.137,0.697-0.86,1.972-0.952C350.546,451.759,351.456,452.353,351.365,452.506z"/>
						</g>
					</g>
				</g>
				<g style="opacity:0.3;">
					<polygon points="351.45,441.117 351.39,444.721 332.103,444.886 331.998,440.729 					"/>
				</g>
				<g>
					<g>
						<path style="fill:#263238;" d="M351.364,448.424c0.004,0.079-0.752,0.211-1.965,0.025c-0.604-0.094-1.317-0.278-2.067-0.595
							c-0.375-0.159-0.758-0.351-1.139-0.579c-0.183-0.113-0.399-0.226-0.602-0.452c-0.216-0.196-0.345-0.702-0.106-1.018
							c0.196-0.305,0.549-0.441,0.832-0.453c0.289-0.015,0.524,0.04,0.739,0.089c0.439,0.098,0.851,0.236,1.229,0.398
							c0.756,0.328,1.372,0.748,1.833,1.157c0.925,0.827,1.248,1.537,1.184,1.575c-0.086,0.065-0.539-0.527-1.478-1.207
							c-0.468-0.338-1.064-0.686-1.77-0.956c-0.353-0.134-0.733-0.247-1.134-0.328c-0.418-0.102-0.771-0.098-0.874,0.088
							c-0.037,0.071-0.042,0.099,0.047,0.219c0.092,0.111,0.262,0.217,0.442,0.33c0.351,0.22,0.704,0.411,1.049,0.575
							c0.69,0.328,1.349,0.548,1.912,0.695C350.625,448.281,351.365,448.32,351.364,448.424z"/>
					</g>
				</g>
				<g>
					<g>
						<path style="fill:#263238;" d="M351.119,448.703c-0.067,0.031-0.46-0.649-0.552-1.889c-0.044-0.615,0.007-1.362,0.23-2.156
							c0.114-0.396,0.271-0.802,0.479-1.202c0.223-0.392,0.495-0.916,1.236-1.014c0.388-0.021,0.716,0.276,0.83,0.534
							c0.135,0.263,0.164,0.49,0.215,0.717c0.08,0.457,0.08,0.906,0.025,1.323c-0.109,0.837-0.438,1.538-0.803,2.045
							c-0.749,1.03-1.544,1.273-1.561,1.209c-0.066-0.095,0.596-0.477,1.165-1.464c0.28-0.487,0.527-1.127,0.589-1.857
							c0.032-0.364,0.02-0.749-0.056-1.135c-0.069-0.416-0.231-0.75-0.387-0.704c-0.195,0-0.521,0.32-0.676,0.656
							c-0.195,0.355-0.349,0.718-0.468,1.074c-0.233,0.713-0.329,1.394-0.346,1.967
							C351.006,447.959,351.223,448.672,351.119,448.703z"/>
					</g>
				</g>
			</g>
			<g>
				<polygon style="fill:#263238;" points="324.861,244.407 358.383,454.989 329.563,454.989 293.127,271.499 304.725,456.32 
					273.135,454.989 255.149,242.508 				"/>
			</g>
		</g>
		<g>
			<path style="fill:#EB996E;" d="M268.73,158.076l-2.868,17.324c-0.6,28.064-59.242,41.505-59.242,41.505l-0.02-0.061
				c-4.51,2.122-9.556,4.379-12.45,5.292c-5.962,1.881-6.139,1.349-6.239,0.617c-0.27-1.965,10.363-3.705,7.861-4.656
				c-2.502-0.951-12.758,3.64-12.955,1.574c-0.258-2.693,10.907-4.309,11.842-4.516c0.908-0.201,0.668-1.565-0.165-1.333
				c-1.199,0.333-13.878,3.522-14.156,0.88c-0.154-1.465,2.501-1.498,2.501-1.498s12.082-2.11,11.909-3.352
				c-0.176-1.261-7.311-0.262-9.693,0.245c-2.354,0.501-3.549-0.415-2.905-1.642c0.439-0.837,7.698-2.562,10.065-3.009
				c2.367-0.447,8.883-1.556,5.226-3.622c-3.657-2.066-5.689-5.032-5.68-6.217c0.008-1.185,1.661-1.605,2.424-0.547
				c0.617,0.855,2.089,1.962,3.227,2.747c0.949,0.655,2.006,1.147,3.119,1.445c1.264,0.339,2.351,0.577,3.283,0.757
				c5.571-1.819,25.294-10.413,36.807-20.523c2.753-2.417,9.811-27.749,9.811-27.749"/>
		</g>
		<g>
			<path style="fill:#FFBE9D;" d="M331.693,186.965c-1.255-2.396-11.49,2.347-12.387,2.685c-0.87,0.327-1.414-0.946-0.59-1.207
				c1.186-0.376,13.548-4.629,12.339-6.994c-0.671-1.311-2.913,0.111-2.913,0.111s-11.273,4.832-11.806,3.696
				c-0.542-1.153,5.981-4.213,8.254-5.089c2.245-0.866,2.746-2.286,1.537-2.962c-0.825-0.461-7.848,2.058-10.075,2.977
				c-2.227,0.919-8.29,3.548-6.356-0.18c1.935-3.728,2.017-7.323,1.363-8.31c-0.654-0.988-2.268-0.437-2.329,0.866
				c-0.05,1.054-0.679,2.787-1.204,4.067c-0.437,1.065-1.052,2.052-1.82,2.908c-0.875,0.976-1.656,1.77-2.339,2.43
				c-5.031,1.35-22.277,1.451-36.76,2.478c-3.276,0.232-6.404-1.38-8.132-4.173l-15.05-24.318l-5.723,3.418l-16.459,15.498
				l16.707,20.372c15.83,23.181,72.294,2.411,72.294,2.411l-0.017-0.062c4.937-0.685,10.397-1.551,13.32-2.367
				c6.022-1.681,5.879-2.223,5.563-2.891c-0.848-1.794-10.705,2.557-9.128,0.393C321.557,190.558,332.656,188.803,331.693,186.965z"
				/>
		</g>
		<g>
			<g>
				<g>
					<g>
						<g>
							<g>
								<g>
									<g>
										<g>
											<g>
												<g>
													<path style="fill:#EB996E;" d="M306.824,97.246l-3.93,45.575l-22.826-1.823c-0.142-2.665,0.049-12.976,0.049-12.976
														s-9.497-1.477-9.614-10.972c-0.057-4.611,0.603-14.142,1.296-22.727c0.769-9.525,9.003-16.688,18.542-16.131h0
														C300.219,78.77,307.674,87.387,306.824,97.246z"/>
												</g>
											</g>
										</g>
									</g>
								</g>
							</g>
						</g>
						<g>
							<g>
								<g>
									<g>
										<g>
											<g>
												<g>
													<path style="fill:#D1734A;" d="M280.101,127.886c0,0,6.001,0.488,12.379-3.518c0,0-2.926,6.834-12.401,5.979
														L280.101,127.886z"/>
												</g>
											</g>
										</g>
									</g>
								</g>
							</g>
						</g>
					</g>
				</g>
			</g>
			<g>
				<g>
					<g>
						<g>
							<g>
								<g>
									<g>
										<g>
											<g>
												<g>
													<g>
														<g>
															<g>
																<path style="fill:#263238;" d="M276.498,100.633c-0.025,0.716,0.56,1.328,1.308,1.368
																	c0.746,0.04,1.372-0.507,1.398-1.223c0.025-0.716-0.56-1.329-1.306-1.369
																	C277.15,99.37,276.523,99.918,276.498,100.633z"/>
															</g>
														</g>
													</g>
												</g>
											</g>
										</g>
									</g>
									<g>
										<g>
											<g>
												<g>
													<g>
														<g>
															<g>
																<g>
																	<path style="fill:#263238;" d="M273.828,99.109c0.168,0.177,1.195-0.584,2.655-0.58
																		c1.457-0.017,2.528,0.734,2.687,0.555c0.078-0.079-0.093-0.398-0.56-0.738c-0.459-0.338-1.242-0.667-2.151-0.663
																		c-0.909,0.005-1.674,0.34-2.113,0.682C273.897,98.71,273.745,99.03,273.828,99.109z"/>
																</g>
															</g>
														</g>
													</g>
												</g>
											</g>
										</g>
									</g>
								</g>
								<g>
									<g>
										<g>
											<g>
												<g>
													<g>
														<g>
															<g>
																<path style="fill:#263238;" d="M290.025,100.976c-0.025,0.716,0.56,1.328,1.307,1.368
																	c0.746,0.04,1.372-0.506,1.398-1.223c0.025-0.716-0.56-1.329-1.306-1.369
																	C290.677,99.712,290.051,100.26,290.025,100.976z"/>
															</g>
														</g>
													</g>
												</g>
											</g>
										</g>
									</g>
									<g>
										<g>
											<g>
												<g>
													<g>
														<g>
															<g>
																<g>
																	<path style="fill:#263238;" d="M288.171,99.381c0.168,0.177,1.197-0.583,2.655-0.579
																		c1.457-0.017,2.529,0.733,2.687,0.555c0.077-0.079-0.092-0.398-0.56-0.738c-0.459-0.338-1.242-0.667-2.15-0.663
																		c-0.909,0.005-1.674,0.34-2.113,0.682C288.242,98.982,288.089,99.302,288.171,99.381z"/>
																</g>
															</g>
														</g>
													</g>
												</g>
											</g>
										</g>
									</g>
								</g>
								<g>
									<g>
										<g>
											<g>
												<g>
													<g>
														<g>
															<g>
																<path style="fill:#263238;" d="M282.875,110.203c0.007-0.083-0.9-0.24-2.37-0.428
																	c-0.373-0.038-0.725-0.112-0.788-0.367c-0.088-0.269,0.068-0.671,0.249-1.104c0.35-0.902,0.717-1.847,1.102-2.837
																	c1.53-4.04,2.638-7.361,2.475-7.422c-0.163-0.06-1.536,3.165-3.066,7.205c-0.368,0.996-0.72,1.946-1.056,2.854
																	c-0.141,0.423-0.384,0.904-0.193,1.462c0.1,0.278,0.374,0.481,0.613,0.545c0.239,0.073,0.449,0.077,0.633,0.088
																	C281.952,110.279,282.87,110.286,282.875,110.203z"/>
															</g>
														</g>
													</g>
												</g>
											</g>
										</g>
									</g>
								</g>
								<g>
									<g>
										<g>
											<g>
												<g>
													<g>
														<g>
															<g>
																<path style="fill:#263238;" d="M287.17,111.212c-0.237-0.014-0.24,1.57-1.596,2.694
																	c-1.353,1.128-3.042,0.95-3.054,1.172c-0.022,0.099,0.376,0.308,1.089,0.327c0.699,0.024,1.72-0.201,2.549-0.888
																	c0.827-0.689,1.183-1.609,1.237-2.259C287.455,111.595,287.278,111.203,287.17,111.212z"/>
															</g>
														</g>
													</g>
												</g>
											</g>
										</g>
									</g>
								</g>
							</g>
						</g>
					</g>
					<g>
						<g>
							<g>
								<g>
									<g>
										<g>
											<g>
												<path style="fill:#263238;" d="M287.795,93.663c0.144,0.397,1.601,0.209,3.313,0.415
													c1.716,0.172,3.097,0.673,3.324,0.317c0.101-0.17-0.139-0.544-0.698-0.928c-0.553-0.383-1.436-0.748-2.464-0.862
													c-1.028-0.112-1.969,0.051-2.592,0.305C288.049,93.163,287.733,93.474,287.795,93.663z"/>
											</g>
										</g>
									</g>
								</g>
							</g>
						</g>
					</g>
					<g>
						<g>
							<g>
								<g>
									<g>
										<g>
											<g>
												<path style="fill:#263238;" d="M274.364,94.886c0.257,0.331,1.262-0.013,2.471-0.029
													c1.208-0.059,2.232,0.223,2.468-0.124c0.103-0.168-0.058-0.5-0.505-0.814c-0.441-0.313-1.178-0.568-2.008-0.543
													c-0.831,0.026-1.55,0.327-1.971,0.666C274.391,94.383,274.251,94.724,274.364,94.886z"/>
											</g>
										</g>
									</g>
								</g>
							</g>
						</g>
					</g>
				</g>
			</g>
			<g>
				<path style="fill:#263238;" d="M296.514,86.834c0.018,0.014,0.035,0.028,0.052,0.041c1.512,1.194,2.511,2.922,2.776,4.83
					c0.009,0.067,0.018,0.131,0.026,0.192c0.371,2.708,0.304,5.464,0.702,8.168c0.398,2.705,1.335,5.456,3.335,7.32
					c0.823,0.767,2.277,1.294,2.954,0.396c0.262-0.347,0.305-0.807,0.338-1.241c0.506-6.54,2.292-12.341,2.28-19.18
					c-0.003-1.861-0.879-3.608-2.392-4.692c-1.432-1.026-3.18-2.09-4.771-1.337c-1.595,0.755-3.653,3.732-4.886,4.994"/>
			</g>
			<g>
				<g>
					<g>
						<g>
							<g>
								<g>
									<g>
										<g>
											<path style="fill:#EB996E;" d="M303.623,101.543c0.162-0.07,6.524-1.93,6.317,4.562
												c-0.207,6.492-6.682,4.945-6.688,4.758C303.247,110.676,303.623,101.543,303.623,101.543z"/>
										</g>
									</g>
								</g>
							</g>
						</g>
					</g>
				</g>
				<g>
					<g>
						<g>
							<g>
								<g>
									<g>
										<g>
											<g>
												<path style="fill:#D1734A;" d="M305.314,108.467c0.029-0.02,0.111,0.083,0.299,0.177
													c0.184,0.091,0.502,0.16,0.845,0.044c0.694-0.23,1.306-1.3,1.375-2.469c0.036-0.59-0.07-1.157-0.265-1.629
													c-0.183-0.481-0.48-0.823-0.823-0.895c-0.341-0.09-0.592,0.108-0.677,0.288c-0.093,0.179-0.056,0.31-0.09,0.32
													c-0.019,0.016-0.136-0.113-0.075-0.38c0.031-0.128,0.112-0.279,0.268-0.398c0.16-0.122,0.391-0.179,0.631-0.145
													c0.5,0.051,0.935,0.526,1.149,1.044c0.241,0.522,0.374,1.159,0.334,1.822c-0.083,1.307-0.792,2.509-1.739,2.751
													c-0.46,0.105-0.837-0.045-1.029-0.205C305.321,108.624,305.291,108.478,305.314,108.467z"/>
											</g>
										</g>
									</g>
								</g>
							</g>
						</g>
					</g>
				</g>
			</g>
			<g>
				<path style="fill:#263238;" d="M302.034,82.336c1.598-2.597-2.781-6.326-5.985-7.337c-3.204-1.01-7.424,0.552-10.613,1.609
					c-2.012,0.667-4.017,1.598-6.135,1.511c-1.42-0.059-2.775-0.575-4.115-1.049s-2.735-0.917-4.153-0.82
					c-1.418,0.097-2.878,0.851-3.416,2.167c-0.538,1.315,0.233,3.118,1.641,3.314c-1.797-0.987-4.396,0.31-4.688,2.339
					c-0.292,2.029,1.835,4.006,3.837,3.569c-0.923-0.7-2.338,0.456-2.224,1.609c0.114,1.153,1.159,1.991,2.22,2.457
					c2.707,1.189,5.864,0.809,8.666-0.134c2.802-0.943,5.401-2.412,8.179-3.425c2.778-1.013,7.431-2.83,10.219-1.847
					c2.053,0.724,3.482,3.197,4.641,2.651c1.12-0.527,1.831-1.701,2.055-2.919C302.386,84.813,302.21,83.561,302.034,82.336"/>
			</g>
			<g>
				<g>
					<path style="fill:#455A64;" d="M268.474,81.552c0.054-0.032,0.334,0.48,1.032,1.238c0.698,0.744,1.875,1.724,3.607,2.322
						c1.701,0.593,4.012,0.785,6.191-0.25c2.208-0.988,4.097-2.968,6.272-4.833c2.169-1.881,4.731-3.273,7.297-3.505
						c2.551-0.243,4.907,0.692,6.208,2.15c1.309,1.472,1.57,3.149,1.473,4.196c-0.047,0.536-0.183,0.933-0.28,1.193
						c-0.117,0.255-0.19,0.381-0.21,0.372c-0.06-0.021,0.211-0.554,0.24-1.578c0.02-0.998-0.305-2.556-1.555-3.874
						c-1.235-1.301-3.436-2.129-5.818-1.871c-2.394,0.248-4.822,1.569-6.94,3.406c-2.134,1.823-4.082,3.856-6.444,4.883
						c-2.353,1.08-4.83,0.817-6.588,0.137c-1.799-0.685-2.979-1.766-3.641-2.584c-0.328-0.417-0.556-0.76-0.677-1.011
						C268.512,81.696,268.454,81.562,268.474,81.552z"/>
				</g>
			</g>
			<g>
				<g>
					<path style="fill:#455A64;" d="M305.276,101.26c-0.024,0.022-0.28-0.179-0.525-0.694c-0.248-0.507-0.441-1.343-0.324-2.353
						c0.144-2.091,1.993-4.336,2.229-7.226c0.144-1.427-0.106-2.819-0.718-3.875c-0.607-1.053-1.557-1.739-2.413-2.084
						c-0.865-0.359-1.649-0.363-2.167-0.295c-0.522,0.083-0.802,0.205-0.826,0.153c-0.015-0.026,0.23-0.229,0.774-0.397
						c0.538-0.151,1.405-0.224,2.376,0.114c0.961,0.324,2.043,1.03,2.765,2.209c0.716,1.167,1.003,2.704,0.848,4.236
						c-0.132,1.54-0.693,2.933-1.252,4.092c-0.556,1.164-1.02,2.206-1.166,3.136C304.534,100.178,305.371,101.229,305.276,101.26z"
						/>
				</g>
			</g>
		</g>
		<g>
			<g>
				<g>
					<g>
						<g>
							<g>
								<path style="fill:#E8505B;" d="M257.734,177.338c0,0-1.309,31.335-2.24,48.958c-0.662,12.533-0.506,21.556-0.506,21.556
									l72.382,1.803l-5.374-38.246l-1.806-36.901l8.114,7.656l16.557-18.42l-15.389-16.824
									c-4.642-5.074-10.71-8.625-17.408-10.186l-5.766-1.343c-0.867-0.101-1.76-0.172-2.685-0.211l0,0
									c-7.854,2.428-15.708,2.432-23.562,0.014c-1.331,0.167-3.379,0.345-6.074,0.712c-5.738,0.782-6.716,0.838-9.264,2.046
									c-4.942,2.344-9.325,5.719-12.948,9.816l-7.673,9.909L257.734,177.338"/>
							</g>
						</g>
					</g>
				</g>
			</g>
			<g style="opacity:0.3;">
				<path d="M319.569,165.357c0,0-5.365,24.519-3.674,32.636c1.691,8.117,8.591,31.007,8.591,31.007l-2.485-17.789l-1.053-25.507
					L319.569,165.357z"/>
			</g>
			<g>
				<path style="fill:#263238;" d="M257.544,160.545c0.07-0.003,0.192,1.238,0.303,3.25c0.112,2.011,0.206,4.794,0.224,7.867
					c0.018,3.075-0.043,5.858-0.131,7.871c-0.087,2.013-0.194,3.255-0.265,3.253c-0.074-0.002-0.097-1.248-0.104-3.26
					c-0.006-2.164-0.014-4.869-0.022-7.861c-0.027-2.991-0.052-5.695-0.072-7.859C257.462,161.794,257.471,160.548,257.544,160.545z
					"/>
			</g>
			<g>
				<path style="fill:#FAFAFA;" d="M320.582,140.004c0.013,0.012-0.135,0.19-0.43,0.517c-0.304,0.318-0.717,0.825-1.33,1.396
					c-1.183,1.186-3.024,2.785-5.516,4.46c-2.487,1.678-5.677,3.361-9.443,4.642c-3.758,1.285-8.108,2.105-12.702,2.124
					c-4.596-0.026-8.945-0.853-12.702-2.144c-3.764-1.287-6.952-2.975-9.436-4.657c-2.49-1.678-4.328-3.281-5.509-4.468
					c-0.612-0.572-1.025-1.079-1.328-1.398c-0.295-0.328-0.443-0.506-0.429-0.518c0.013-0.012,0.187,0.142,0.505,0.445
					c0.327,0.294,0.761,0.777,1.392,1.323c1.218,1.136,3.079,2.684,5.572,4.307c2.487,1.628,5.658,3.263,9.387,4.51
					c3.721,1.251,8.016,2.052,12.549,2.078c4.532-0.02,8.827-0.813,12.549-2.059c3.73-1.241,6.903-2.871,9.393-4.495
					c2.495-1.62,4.359-3.164,5.579-4.299c0.632-0.545,1.066-1.027,1.394-1.321C320.394,140.146,320.568,139.992,320.582,140.004z"/>
			</g>
			<g>
				<path style="fill:#FAFAFA;" d="M324.273,141.654c0.014,0.01-0.136,0.234-0.437,0.651c-0.314,0.406-0.723,1.051-1.368,1.787
					c-1.225,1.522-3.183,3.593-5.92,5.78c-2.729,2.192-6.313,4.414-10.626,6.129c-4.302,1.72-9.36,2.849-14.723,2.911
					c-5.365,0-10.437-1.072-14.759-2.743c-4.333-1.665-7.943-3.847-10.697-6.007c-2.762-2.156-4.743-4.204-5.985-5.712
					c-0.653-0.728-1.069-1.368-1.388-1.771c-0.306-0.413-0.459-0.635-0.444-0.646c0.014-0.011,0.196,0.19,0.527,0.582
					c0.345,0.381,0.784,0.998,1.458,1.702c1.283,1.46,3.29,3.453,6.055,5.552c2.758,2.104,6.35,4.229,10.644,5.852
					c4.283,1.628,9.293,2.67,14.586,2.67c5.29-0.061,10.287-1.161,14.55-2.837c4.274-1.671,7.841-3.837,10.575-5.972
					c2.742-2.131,4.726-4.147,5.992-5.621c0.665-0.711,1.098-1.334,1.438-1.719C324.079,141.847,324.258,141.644,324.273,141.654z"
					/>
			</g>
			<g>
				<path style="fill:#FAFAFA;" d="M328.046,144.71c0.014,0.011-0.158,0.254-0.5,0.709c-0.356,0.443-0.822,1.147-1.548,1.948
					c-1.384,1.66-3.584,3.915-6.642,6.294c-1.524,1.196-3.298,2.367-5.259,3.527c-1.993,1.101-4.164,2.22-6.566,3.121
					c-4.773,1.859-10.371,3.071-16.299,3.121c-5.931-0.017-11.536-1.197-16.32-3.03c-2.407-0.888-4.585-1.995-6.584-3.085
					c-1.967-1.149-3.748-2.31-5.278-3.498c-3.072-2.361-5.284-4.604-6.677-6.256c-0.731-0.797-1.201-1.499-1.559-1.939
					c-0.344-0.453-0.518-0.695-0.504-0.706c0.014-0.011,0.216,0.21,0.586,0.641c0.384,0.419,0.877,1.097,1.628,1.87
					c1.433,1.604,3.671,3.791,6.746,6.097c1.532,1.16,3.31,2.293,5.268,3.416c1.991,1.064,4.154,2.145,6.542,3.012
					c4.746,1.79,10.29,2.942,16.15,2.959c5.857-0.05,11.394-1.232,16.129-3.049c2.383-0.88,4.54-1.974,6.524-3.048
					c1.952-1.134,3.723-2.277,5.249-3.445c3.063-2.322,5.289-4.523,6.713-6.134c0.747-0.777,1.236-1.458,1.618-1.879
					C327.831,144.922,328.031,144.699,328.046,144.71z"/>
			</g>
		</g>
	</g>
	<g>
		<g>
			<g>
				<path style="fill:#263238;" d="M222.804,82.313c3.281-0.191,6.321,1.797,8.582,4.183c2.261,2.386,4.011,5.228,6.357,7.53
					c1.751,1.718,3.87,3.188,4.931,5.4c1.687,3.518,0.274,8.067,2.4,11.339c1.197,1.843,3.32,2.919,4.555,4.737
					c1.546,2.275,1.432,5.264,1.083,7.993c-0.243,1.895-0.626,3.896-1.928,5.295c-1.018,1.093-2.464,1.667-3.878,2.149
					c-10.671,3.639-22.47,3.892-33.287,0.711"/>
			</g>
			<g>
				<g>
					<path style="fill:#FFBE9D;" d="M200.218,104.277c-1.181-9.432,5.641-18.052,15.219-18.964
						c9.027-0.86,17.05,5.862,18.403,14.828c1.186,7.86,2.206,15.795,2.169,18.676c-0.111,8.69-5.195,12.073-7.256,13.089
						c-0.47,0.232-1.768,0.495-2.287,0.569l0,0c-0.032,0.005-0.054,0.036-0.048,0.068l1.93,9.975
						c0.875,6.536-2.774,12.365-9.298,13.316c-6.547,0.954-11.665-4.066-12.664-10.606L200.218,104.277z"/>
				</g>
				<g>
					<g>
						<g>
							<g>
								<g>
									<g>
										<path style="fill:#263238;" d="M232.341,105.222c-0.144,0.203-1.291-0.412-2.762-0.194
											c-1.472,0.197-2.441,1.111-2.627,0.954c-0.09-0.068,0.036-0.415,0.456-0.826c0.413-0.408,1.154-0.855,2.071-0.984
											c0.917-0.129,1.737,0.096,2.23,0.377C232.213,104.83,232.413,105.131,232.341,105.222z"/>
									</g>
								</g>
							</g>
						</g>
					</g>
				</g>
				<g>
					<g>
						<g>
							<g>
								<g>
									<g>
										<path style="fill:#263238;" d="M219.254,108.058c-0.144,0.203-1.293-0.412-2.762-0.194
											c-1.472,0.197-2.441,1.111-2.627,0.954c-0.09-0.068,0.034-0.415,0.456-0.826c0.413-0.408,1.154-0.855,2.07-0.984
											c0.917-0.128,1.737,0.096,2.23,0.377C219.124,107.666,219.325,107.966,219.254,108.058z"/>
									</g>
								</g>
							</g>
						</g>
					</g>
				</g>
				<g>
					<g>
						<g>
							<g>
								<g>
									<path style="fill:#263238;" d="M224.343,115.01c-0.019-0.083,0.872-0.374,2.327-0.779c0.37-0.094,0.715-0.22,0.74-0.486
										c0.049-0.284-0.167-0.666-0.413-1.077c-0.486-0.857-0.994-1.756-1.528-2.698c-2.136-3.847-3.741-7.033-3.585-7.118
										c0.156-0.085,2.014,2.965,4.15,6.813c0.517,0.95,1.012,1.856,1.483,2.722c0.204,0.406,0.519,0.854,0.41,1.446
										c-0.06,0.295-0.306,0.539-0.538,0.639c-0.23,0.108-0.441,0.143-0.625,0.182
										C225.286,114.952,224.361,115.093,224.343,115.01z"/>
								</g>
							</g>
						</g>
					</g>
				</g>
				<g>
					<g>
						<g>
							<g>
								<path style="fill:#EB996E;" d="M226.405,132.483c0,0-5.611,1.294-13.338-1.94c0,0,3.335,7.181,13.858,4.628L226.405,132.483
									z"/>
							</g>
						</g>
					</g>
				</g>
				<g>
					<g>
						<g>
							<g>
								<path style="fill:#EB996E;" d="M224.238,118.646c-0.631-0.622-1.614-0.871-2.52-0.638c-0.628,0.162-1.229,0.563-1.54,1.14
									c-0.312,0.576-0.286,1.326,0.139,1.771c0.478,0.5,1.327,0.508,2,0.206c0.673-0.302,1.21-0.852,1.716-1.396
									c0.14-0.15,0.283-0.307,0.357-0.496c0.074-0.189,0.061-0.42-0.082-0.547"/>
							</g>
						</g>
					</g>
				</g>
				<g>
					<g>
						<g>
							<g>
								<g>
									<path style="fill:#263238;" d="M220.163,116.659c0.237-0.049,0.473,1.548,2.005,2.481c1.53,0.938,3.206,0.511,3.251,0.732
										c0.037,0.097-0.334,0.365-1.049,0.49c-0.701,0.127-1.763,0.05-2.701-0.521c-0.935-0.574-1.429-1.448-1.579-2.095
										C219.932,117.087,220.052,116.666,220.163,116.659z"/>
								</g>
							</g>
						</g>
					</g>
				</g>
				<g>
					<g>
						<g>
							<g>
								<path style="fill:#263238;" d="M218.241,103.271c-0.087,0.421-1.583,0.446-3.279,0.905
									c-1.705,0.425-3.023,1.134-3.304,0.808c-0.127-0.157,0.06-0.568,0.567-1.038c0.501-0.468,1.338-0.965,2.357-1.231
									c1.019-0.264,1.992-0.238,2.658-0.074C217.911,102.805,218.275,103.072,218.241,103.271z"/>
							</g>
						</g>
					</g>
				</g>
				<g>
					<g>
						<g>
							<g>
								<path style="fill:#263238;" d="M230.855,100.688c-0.21,0.372-1.274,0.173-2.495,0.334c-1.226,0.118-2.218,0.553-2.506,0.238
									c-0.129-0.155-0.015-0.513,0.39-0.895c0.398-0.38,1.104-0.746,1.945-0.843c0.841-0.095,1.611,0.102,2.084,0.382
									C230.754,100.184,230.946,100.508,230.855,100.688z"/>
							</g>
						</g>
					</g>
				</g>
			</g>
			<g>
				<path style="fill:#263238;" d="M235.545,98.193c-1.798,2.745-7.506,1.049-10.953-0.836c-3.631,2.406-8.675,1.362-11.19-2.317
					c-1.972,2.512-5.977,1.682-7.438-1.149c-1.461-2.831-0.639-6.726,1.367-9.202c2.006-2.477,4.941-3.727,7.839-4.262
					c6.87-1.269,14.354,1.394,18.465,7.607C235.531,90.9,236.67,94.759,235.545,98.193"/>
			</g>
			<g>
				<path style="fill:#263238;" d="M207.845,84.494c-6.463-1.234-12.702,5.208-13.349,9.819c-1.122,8.004-0.041,9.002-1.504,12.839
					c-0.95,2.493-4.238,5.048-5.536,7.618c-1.396,2.764-1.389,7.433-0.42,10.374c0.818,2.481,4.153,9.404,4.153,9.404
					s9.615-0.315,14.533-1.573c1.227-0.314,2.534-0.772,3.472-1.623c0.93-0.845-0.995-3.782-0.819-5.026
					c0.504-3.548,3.161-5.599,2.401-9.1c-1.009-4.65-4.666-4.886-4.585-9.643c0.043-2.526,3.805-6.149,4.151-8.652
					C210.688,96.428,212.139,87.716,207.845,84.494"/>
			</g>
			<g>
				<g>
					<path style="fill:#455A64;" d="M196.908,134.835c0.034-0.034-0.468-0.537-1.279-1.523c-0.804-0.985-1.915-2.481-2.861-4.545
						c-0.93-2.05-1.693-4.734-1.399-7.712c0.267-2.937,1.576-6.206,4.253-8.371c1.331-1.08,2.853-1.893,4.149-2.979
						c1.332-1.05,2.26-2.532,2.692-4.016c0.463-1.483,0.618-2.938,0.797-4.268c0.174-1.332,0.375-2.562,0.736-3.629
						c0.675-2.168,2.145-3.472,3.287-3.956c1.162-0.506,1.913-0.324,1.905-0.4c0.002-0.013-0.173-0.063-0.516-0.073
						c-0.341-0.013-0.86,0.031-1.474,0.269c-1.221,0.436-2.829,1.781-3.582,4.028c-0.4,1.1-0.628,2.359-0.823,3.695
						c-0.2,1.334-0.372,2.761-0.829,4.174c-0.437,1.421-1.277,2.746-2.55,3.748c-1.24,1.034-2.76,1.841-4.152,2.966
						c-2.825,2.287-4.169,5.717-4.416,8.764c-0.276,3.098,0.56,5.857,1.556,7.929c1.015,2.089,2.193,3.568,3.057,4.519
						c0.431,0.479,0.791,0.827,1.043,1.054C196.756,134.737,196.894,134.849,196.908,134.835z"/>
				</g>
			</g>
			<g>
				<g>
					<path style="fill:#455A64;" d="M243.919,130.649c0.017,0.01,0.099-0.109,0.241-0.346c0.152-0.233,0.327-0.6,0.543-1.08
						c0.401-0.967,0.835-2.465,0.838-4.363c0.008-1.881-0.444-4.193-1.808-6.33c-0.667-1.079-1.583-2.022-2.429-3.041
						c-0.846-1.012-1.637-2.138-1.925-3.476c-0.576-2.7,0.31-5.419,0.127-7.927c-0.091-2.502-0.789-4.725-1.776-6.343
						c-0.978-1.632-2.15-2.672-3.007-3.27c-0.434-0.298-0.781-0.51-1.031-0.629c-0.245-0.127-0.377-0.186-0.387-0.169
						c-0.03,0.05,0.48,0.328,1.285,0.974c0.802,0.641,1.894,1.695,2.793,3.294c0.908,1.587,1.54,3.735,1.601,6.161
						c0.05,1.213-0.096,2.478-0.237,3.817c-0.131,1.332-0.253,2.768,0.079,4.219c0.317,1.467,1.186,2.683,2.052,3.705
						c0.871,1.034,1.774,1.952,2.416,2.967c1.324,2.019,1.804,4.232,1.846,6.051c0.048,1.835-0.313,3.308-0.643,4.28
						C244.152,130.117,243.871,130.623,243.919,130.649z"/>
				</g>
			</g>
			<g>
				<g>
					<path style="fill:#455A64;" d="M216.553,81.407c0.007,0.12,1.624-0.19,4.169,0.234c2.498,0.419,6.016,1.722,8.635,4.646
						c2.56,2.966,3.723,6.481,4.148,8.989c0.429,2.548,0.102,4.156,0.213,4.166c0.032,0.006,0.139-0.386,0.234-1.115
						c0.085-0.729,0.114-1.801-0.05-3.109c-0.337-2.589-1.455-6.215-4.12-9.307c-2.744-3.06-6.42-4.338-9-4.666
						c-1.309-0.172-2.381-0.134-3.11-0.052C216.941,81.271,216.548,81.376,216.553,81.407z"/>
				</g>
			</g>
			<g>
				<g>
					<path style="fill:#455A64;" d="M225.843,94.18c0.032,0.003,0.106-0.342,0.137-0.978c0.034-0.635-0.019-1.567-0.28-2.682
						c-0.488-2.203-2.086-5.248-5.163-7.077c-3.093-1.805-6.531-1.726-8.694-1.085c-1.102,0.313-1.942,0.718-2.482,1.056
						c-0.541,0.336-0.807,0.568-0.789,0.594c0.056,0.103,1.205-0.752,3.369-1.261c2.116-0.521,5.385-0.521,8.307,1.185
						c2.907,1.728,4.493,4.586,5.063,6.69C225.917,92.761,225.726,94.181,225.843,94.18z"/>
				</g>
			</g>
		</g>
		<g>
			<g>
				<g>
					<path style="fill:#455A64;" d="M158.278,429.034l-5.584,25.241l-10.173,18.691c-0.733,1.347-0.172,3.033,1.221,3.673l0,0
						c0.781,0.358,1.678,0.32,2.422-0.109c4.733-2.734,22.093-12.88,22.398-14.751c0.353-2.166,7.657-26.234,7.657-26.234
						L158.278,429.034z"/>
				</g>
				<g style="opacity:0.6;">
					<path style="fill:#FFFFFF;" d="M143.743,476.638l25.236-16.554l-0.261,1.064c-0.226,0.92-0.766,1.731-1.534,2.285
						c-2.054,1.482-7.814,5.451-20.943,13.115C145.478,476.994,144.537,477.029,143.743,476.638L143.743,476.638z"/>
				</g>
				<g style="opacity:0.6;">
					<g>
						<path style="fill:#FFFFFF;" d="M165.814,450.721c-0.736,0.281-1.175,1.182-0.925,1.928c0.25,0.747,1.163,1.201,1.903,0.933
							c0.74-0.268,1.301-1.333,0.968-2.047c-0.332-0.714-1.433-1.189-2.087-0.751"/>
					</g>
				</g>
				<g>
					<g>
						<path style="fill:#263238;" d="M152.173,467.077c-0.159,0.034-0.403-1.419-1.722-2.493c-1.287-1.113-2.761-1.099-2.755-1.262
							c-0.007-0.067,0.359-0.184,0.967-0.123c0.603,0.057,1.432,0.348,2.153,0.95c0.718,0.604,1.149,1.37,1.31,1.954
							C152.292,466.691,152.24,467.071,152.173,467.077z"/>
					</g>
				</g>
				<g>
					<g>
						<path style="fill:#263238;" d="M149.56,470c-0.146,0.079-0.752-0.935-1.959-1.625c-1.192-0.717-2.372-0.751-2.374-0.917
							c-0.041-0.146,1.298-0.382,2.662,0.428C149.26,468.68,149.707,469.964,149.56,470z"/>
					</g>
				</g>
				<g>
					<g>
						<path style="fill:#263238;" d="M156.559,463.584c-0.147,0.09-1.071-1.474-2.854-2.712c-1.764-1.266-3.547-1.613-3.511-1.782
							c-0.008-0.144,1.943-0.035,3.839,1.318C155.941,461.741,156.697,463.543,156.559,463.584z"/>
					</g>
				</g>
				<g>
					<g>
						<path style="fill:#263238;" d="M158.898,456.053c-0.104,0.134-1.349-0.786-3.137-1.294c-1.782-0.532-3.326-0.425-3.342-0.594
							c-0.039-0.14,1.584-0.519,3.5,0.049C157.84,454.765,159.006,455.956,158.898,456.053z"/>
					</g>
				</g>
				<g>
					<g>
						<path style="fill:#263238;" d="M160.724,448.685c-0.113,0.126-1.303-1.053-3.23-1.433c-1.919-0.423-3.481,0.18-3.534,0.019
							c-0.028-0.063,0.323-0.31,0.984-0.503c0.656-0.194,1.63-0.287,2.666-0.072c1.035,0.218,1.89,0.694,2.414,1.134
							C160.552,448.271,160.775,448.639,160.724,448.685z"/>
					</g>
				</g>
				<g>
					<g>
						<path style="fill:#263238;" d="M157.882,445.86c-0.032-0.007-0.006-0.359,0.199-0.958c0.205-0.594,0.601-1.446,1.365-2.302
							c0.386-0.4,0.815-0.93,1.597-1.089c0.389-0.081,0.893,0.11,1.109,0.516c0.216,0.396,0.208,0.831,0.119,1.231
							c-0.417,1.587-2.163,2.793-4.012,2.582c-1.848-0.244-3.226-1.672-3.602-3.222c-0.069-0.395-0.069-0.858,0.23-1.234
							c0.296-0.381,0.848-0.426,1.193-0.276c0.718,0.294,1.083,0.839,1.443,1.265c0.695,0.908,1.05,1.771,1.235,2.371
							c0.185,0.604,0.205,0.956,0.173,0.962c-0.104,0.044-0.332-1.389-1.721-3.082c-0.357-0.398-0.76-0.891-1.285-1.072
							c-0.255-0.09-0.506-0.041-0.651,0.147c-0.146,0.179-0.17,0.507-0.103,0.82c0.326,1.274,1.589,2.576,3.155,2.758
							c1.556,0.193,3.09-0.869,3.437-2.143c0.079-0.308,0.073-0.639-0.047-0.863c-0.118-0.22-0.353-0.33-0.608-0.293
							c-0.537,0.077-0.994,0.524-1.37,0.897C158.229,444.458,157.988,445.912,157.882,445.86z"/>
					</g>
				</g>
			</g>
			<g style="opacity:0.3;">
				<polygon points="157.627,431.772 156.877,435.37 174.697,440.593 176.221,435.545 158.278,429.034 				"/>
			</g>
		</g>
		<g>
			<g>
				<g>
					<path style="fill:#455A64;" d="M238.199,437.767l-0.56,20.218c0,0,20.363,7.359,20.623,11.106l-39.241,0.322l-0.42-31.538
						L238.199,437.767z"/>
				</g>
				<g style="opacity:0.6;">
					<g>
						<path style="fill:#FFFFFF;" d="M225.491,456.384c-0.758,0.214-1.275,1.072-1.093,1.838c0.182,0.766,1.051,1.3,1.812,1.099
							c0.761-0.2,1.414-1.212,1.147-1.952s-1.321-1.312-2.012-0.935"/>
					</g>
				</g>
				<g style="opacity:0.6;">
					<path style="fill:#FFFFFF;" d="M219.021,469.413l0.082-3.181l37.593,0.881c0,0,1.753,0.746,1.566,1.978L219.021,469.413z"/>
				</g>
				<g>
					<g>
						<path style="fill:#263238;" d="M238.273,457.78c-0.005,0.192-0.962,0.286-1.9,0.91c-0.954,0.599-1.433,1.433-1.61,1.359
							c-0.177-0.036,0.099-1.184,1.248-1.919C237.153,457.385,238.313,457.604,238.273,457.78z"/>
					</g>
				</g>
				<g>
					<g>
						<path style="fill:#263238;" d="M242.403,459.448c0.045,0.185-0.782,0.518-1.426,1.334c-0.668,0.797-0.825,1.674-1.016,1.668
							c-0.18,0.032-0.322-1.09,0.499-2.089C241.271,459.355,242.397,459.266,242.403,459.448z"/>
					</g>
				</g>
				<g>
					<g>
						<path style="fill:#263238;" d="M244.781,464.355c-0.174,0.042-0.448-0.913,0.035-1.966c0.476-1.057,1.376-1.478,1.458-1.319
							c0.11,0.157-0.468,0.725-0.851,1.596C245.019,463.526,244.971,464.335,244.781,464.355z"/>
					</g>
				</g>
				<g>
					<g>
						<path style="fill:#263238;" d="M237.889,453.158c-0.079,0.175-0.96-0.082-2.043,0c-1.084,0.06-1.924,0.431-2.025,0.267
							c-0.112-0.138,0.705-0.854,1.981-0.933C237.078,452.404,237.982,453.007,237.889,453.158z"/>
					</g>
				</g>
			</g>
			<g style="opacity:0.3;">
				<polygon points="238.083,441.771 237.988,445.374 218.701,445.357 218.635,441.199 				"/>
			</g>
			<g>
				<g>
					<path style="fill:#263238;" d="M237.927,449.077c0.003,0.079-0.753,0.204-1.965,0.006c-0.603-0.099-1.314-0.29-2.061-0.615
						c-0.373-0.163-0.755-0.358-1.133-0.59c-0.182-0.115-0.397-0.23-0.597-0.457c-0.214-0.198-0.339-0.705-0.096-1.019
						c0.199-0.303,0.553-0.436,0.836-0.445c0.289-0.012,0.524,0.045,0.738,0.096c0.438,0.103,0.849,0.244,1.225,0.409
						c0.753,0.335,1.365,0.761,1.822,1.174c0.917,0.836,1.234,1.549,1.169,1.586c-0.086,0.064-0.534-0.532-1.466-1.221
						c-0.465-0.342-1.058-0.696-1.761-0.973c-0.352-0.137-0.731-0.254-1.131-0.339c-0.417-0.106-0.77-0.106-0.875,0.08
						c-0.038,0.071-0.043,0.099,0.045,0.22c0.091,0.111,0.26,0.22,0.439,0.334c0.349,0.224,0.7,0.417,1.043,0.585
						c0.687,0.334,1.344,0.56,1.906,0.713C237.189,448.927,237.93,448.973,237.927,449.077z"/>
				</g>
			</g>
			<g>
				<g>
					<path style="fill:#263238;" d="M237.68,449.354c-0.068,0.03-0.453-0.654-0.534-1.894c-0.038-0.615,0.02-1.362,0.25-2.154
						c0.117-0.395,0.278-0.8,0.491-1.197c0.227-0.39,0.503-0.911,1.245-1.003c0.388-0.018,0.713,0.283,0.825,0.541
						c0.132,0.264,0.16,0.492,0.208,0.719c0.076,0.458,0.071,0.907,0.012,1.324c-0.117,0.836-0.453,1.534-0.823,2.037
						c-0.759,1.023-1.556,1.259-1.573,1.194c-0.065-0.096,0.6-0.471,1.179-1.453c0.285-0.484,0.537-1.121,0.606-1.852
						c0.036-0.364,0.027-0.749-0.045-1.135c-0.065-0.417-0.224-0.752-0.38-0.708c-0.195-0.001-0.524,0.315-0.682,0.649
						c-0.199,0.354-0.356,0.715-0.478,1.069c-0.24,0.711-0.342,1.391-0.365,1.964C237.573,448.608,237.784,449.324,237.68,449.354z"
						/>
				</g>
			</g>
		</g>
		<g>
			<g>
				<g>
					<g>
						<g>
							<path style="fill:#263238;" d="M197.956,191.452c0,0,4.26,9.716,4.015,14.311c-0.245,4.595-4.64,19.52-4.64,19.52
								l52.091,4.873l0.241-12.049l-3.567-29.091l1.328-12.194c-0.116-3.655,0.055-6.775-1.355-10.149
								c-1.932-4.625-6.046-15.978-8.394-19.428c-2.468-3.626-9.329-4.73-9.329-4.73l0.04-4.031l-24.417,2.704l1.049,4.388l0,0
								c0,0-5.419,0.498-10.996,5.148c-5.116,4.265-6.055,7.731-6.728,12.432c-0.942,6.577,0.761,13.261,4.415,18.809
								L197.956,191.452z"/>
						</g>
					</g>
				</g>
			</g>
			<path style="fill:#263238;" d="M234.885,144.81c0,0,8.899,4.81,10.599,8.099c3.461,6.698,12.399,23.499,12.399,23.499
				l-12.384,15.107L234.885,144.81z"/>
			<g>
				<path style="fill:#455A64;" d="M239.423,155.219c0.03-0.02,0.382,0.462,0.994,1.352c0.598,0.898,1.461,2.203,2.418,3.883
					c0.952,1.68,2.043,3.721,2.946,6.125c0.911,2.395,1.638,5.162,1.83,8.13c0.197,2.973-0.07,5.776-0.263,8.319
					c-0.222,2.541-0.419,4.822-0.488,6.743c-0.066,1.92-0.033,3.476,0.031,4.549c0.057,1.074,0.103,1.669,0.062,1.674
					c-0.018,0.002-0.051-0.144-0.097-0.425c-0.041-0.281-0.119-0.695-0.167-1.233c-0.126-1.074-0.216-2.64-0.197-4.574
					c0.022-1.934,0.183-4.232,0.378-6.772c0.167-2.535,0.415-5.34,0.222-8.245c-0.384-5.857-2.777-10.757-4.578-14.112
					c-0.911-1.693-1.723-3.023-2.267-3.953C239.688,155.759,239.393,155.239,239.423,155.219z"/>
			</g>
			<g>
				<path style="fill:#FAFAFA;" d="M203.676,157.372c-0.102,0.101-1.196-0.836-2.442-2.093c-1.247-1.258-2.175-2.359-2.073-2.46
					c0.102-0.101,1.195,0.836,2.442,2.093C202.85,156.17,203.778,157.271,203.676,157.372z"/>
			</g>
			<g>
				<path style="fill:#FAFAFA;" d="M211.449,148.708c0.019,0.143-1.262,0.43-2.86,0.641c-1.599,0.211-2.91,0.267-2.928,0.125
					c-0.019-0.143,1.261-0.429,2.86-0.641C210.119,148.621,211.43,148.566,211.449,148.708z"/>
			</g>
			<g>
				<path style="fill:#FAFAFA;" d="M213.341,160.583c-0.14-0.034,0.097-1.486,0.53-3.243c0.432-1.757,0.896-3.153,1.036-3.118
					c0.14,0.034-0.098,1.486-0.53,3.243C213.945,159.221,213.481,160.617,213.341,160.583z"/>
			</g>
			<g>
				<path style="fill:#FAFAFA;" d="M220.809,171.01c-0.062,0.123-1.304-0.402-2.584-1.441c-1.285-1.034-2.058-2.138-1.95-2.225
					c0.114-0.097,1.036,0.822,2.278,1.82C219.788,170.169,220.88,170.879,220.809,171.01z"/>
			</g>
			<g>
				<path style="fill:#FAFAFA;" d="M223.336,161.332c-0.133-0.056,0.295-1.368,0.955-2.931c0.66-1.563,1.303-2.785,1.435-2.729
					c0.133,0.056-0.295,1.368-0.955,2.931C224.111,160.166,223.468,161.388,223.336,161.332z"/>
			</g>
			<g>
				<path style="fill:#FAFAFA;" d="M231.642,150.274c-0.043,0.137-1.621-0.241-3.523-0.845c-1.903-0.604-3.41-1.204-3.366-1.341
					c0.044-0.137,1.621,0.241,3.524,0.845C230.178,149.536,231.685,150.137,231.642,150.274z"/>
			</g>
			<g>
				<path style="fill:#FAFAFA;" d="M237.053,164.846c-0.14-0.032,0.024-1.268,0.367-2.76c0.343-1.493,0.735-2.676,0.875-2.644
					c0.14,0.032-0.024,1.268-0.368,2.761C237.585,163.694,237.193,164.878,237.053,164.846z"/>
			</g>
			<g>
				<path style="fill:#FAFAFA;" d="M231.568,174.21c-0.135,0.05-0.767-1.311-1.413-3.04c-0.645-1.73-1.059-3.172-0.925-3.222
					c0.135-0.05,0.767,1.311,1.413,3.04C231.288,172.717,231.702,174.16,231.568,174.21z"/>
			</g>
			<g>
				<path style="fill:#FAFAFA;" d="M242.025,178.725c-0.135-0.049,0.14-1.149,0.614-2.455c0.474-1.308,0.968-2.327,1.103-2.278
					c0.135,0.049-0.14,1.148-0.614,2.456C242.654,177.755,242.16,178.775,242.025,178.725z"/>
			</g>
			<g>
				<path style="fill:#FAFAFA;" d="M225.646,182.927c-0.041,0.134-1.531-0.204-3.266-0.921c-1.737-0.714-3.033-1.523-2.967-1.648
					c0.068-0.131,1.453,0.463,3.165,1.166C224.289,182.232,225.69,182.787,225.646,182.927z"/>
			</g>
			<g>
				<path style="fill:#FAFAFA;" d="M232.702,189.719c-0.144-0.008-0.131-1.25,0.029-2.772c0.16-1.523,0.404-2.74,0.547-2.718
					c0.142,0.022,0.129,1.263-0.029,2.772C233.09,188.511,232.845,189.728,232.702,189.719z"/>
			</g>
			<g>
				<path style="fill:#FAFAFA;" d="M253.606,177.14c0.002,0.144-0.925,0.274-2.07,0.291c-1.146,0.017-2.076-0.086-2.078-0.23
					c-0.002-0.144,0.925-0.274,2.07-0.291C252.674,176.893,253.604,176.996,253.606,177.14z"/>
			</g>
			<g>
				<path style="fill:#FAFAFA;" d="M249.389,165.693c-0.132,0.056-0.677-0.923-1.217-2.186c-0.54-1.264-0.871-2.335-0.738-2.391
					c0.132-0.056,0.677,0.922,1.217,2.187C249.191,164.566,249.521,165.637,249.389,165.693z"/>
			</g>
			<g>
				<path style="fill:#FAFAFA;" d="M235.831,153.447c-0.139-0.038,0.073-1.256,0.472-2.721c0.4-1.465,0.836-2.622,0.975-2.584
					c0.139,0.038-0.073,1.256-0.473,2.721C236.406,152.328,235.969,153.485,235.831,153.447z"/>
			</g>
			<g>
				<path style="fill:#FAFAFA;" d="M215.598,143.237c-0.039,0.139-1.341-0.107-2.908-0.548c-1.568-0.441-2.807-0.911-2.768-1.05
					c0.039-0.138,1.341,0.107,2.909,0.548C214.398,142.628,215.637,143.098,215.598,143.237z"/>
			</g>
			<g>
				<path style="fill:#FAFAFA;" d="M219.884,144.447c-0.121-0.078,0.353-1.027,1.059-2.12c0.706-1.093,1.376-1.916,1.497-1.838
					c0.121,0.078-0.353,1.027-1.059,2.12C220.675,143.702,220.005,144.525,219.884,144.447z"/>
			</g>
		</g>
		<g>
			<g>
				<g>
					<g>
						<path style="fill:#FFBE9D;" d="M210.882,210.389c12.626,0.887,34.179,2.593,47.715,4.715
							c5.186,1.264,11.435,2.674,14.782,3.007c6.227,0.621,6.306,0.063,6.274-0.676c-0.088-1.986-10.904-1.509-8.604-2.958
							c2.3-1.449,13.257,0.953,13.08-1.117c-0.23-2.696-11.55-1.99-12.51-2.001c-0.933-0.01-0.942-1.399-0.076-1.343
							c1.244,0.081,14.341,0.606,14.14-2.045c-0.111-1.47-2.74-0.957-2.74-0.957s-12.313,0.411-12.366-0.844
							c-0.054-1.275,7.174-1.759,9.618-1.751c2.415,0.008,3.431-1.137,2.574-2.209c-0.584-0.731-8.065-0.934-10.484-0.886
							c-2.418,0.048-5.429-0.422-5.41-1.103c0.036-1.267,8.794-0.141,9.105-1.719c0.229-1.161-0.336-1.616-3.59-1.666
							c-1.068-0.016-3.395-0.217-5.115-0.288c-1.158-0.048-3.243-0.136-4.278,0.381c-0.896,0.448-1.701,0.818-2.431,1.136
							c-7.766-0.655-44.484-7.786-44.484-7.786l-9.141-21.546c-1.853-6.313-5.94-8.246-11.995-5.672l0,0
							c-5.372,2.283-8.024,8.365-6.042,13.855l8.366,23.176C199.371,205.916,204.707,209.956,210.882,210.389z"/>
					</g>
				</g>
			</g>
			<g>
				<g>
					<g>
						<path style="fill:#263238;" d="M187.66,160.958c-0.969,5.135-1.057,10.478,0.372,15.348
							c2.069,7.055,5.324,16.344,8.249,24.348c0.596,1.631,0.877,3.138,2.898,3.134l18.162-14.16c0,0-11.876-31.335-11.389-30.9
							C206.406,159.135,193.603,155.891,187.66,160.958L187.66,160.958z"/>
					</g>
				</g>
				<g>
					<path style="fill:#455A64;" d="M218.015,190.396c-0.076-0.036,0.593-0.598,0.711-1.919c0.049-0.64-0.092-1.466-0.66-2.154
						c-0.551-0.682-1.528-1.217-2.604-1.146l-0.156,0.01l-0.065-0.145c-0.904-2.013-1.903-4.418-2.842-7.028
						c-1.439-3.977-2.47-7.669-3.109-10.362c-0.319-1.347-0.546-2.444-0.685-3.206c-0.136-0.762-0.195-1.187-0.16-1.194
						c0.035-0.007,0.161,0.403,0.357,1.15c0.228,0.851,0.51,1.908,0.844,3.159c0.728,2.662,1.81,6.318,3.242,10.277
						c0.935,2.598,1.906,5,2.766,7.023l-0.221-0.135c1.257-0.055,2.328,0.583,2.924,1.367c0.616,0.799,0.726,1.727,0.633,2.41
						c-0.09,0.699-0.362,1.195-0.578,1.492C218.191,190.293,218.028,190.409,218.015,190.396z"/>
				</g>
				<g>
					<path style="fill:#FAFAFA;" d="M196.339,167.256c-0.14-0.034,0.051-1.334,0.427-2.905c0.376-1.571,0.794-2.817,0.934-2.784
						c0.14,0.033-0.051,1.334-0.427,2.905C196.897,166.043,196.479,167.289,196.339,167.256z"/>
				</g>
				<g>
					<path style="fill:#FAFAFA;" d="M197.367,176.04c-0.017,0.139-1.485,0.063-3.233-0.38c-1.75-0.438-3.079-1.065-3.028-1.195
						c0.052-0.139,1.438,0.261,3.155,0.69C195.976,175.59,197.387,175.894,197.367,176.04z"/>
				</g>
				<g>
					<path style="fill:#FAFAFA;" d="M202.907,178.904c-0.138-0.04,0.156-1.471,0.657-3.196c0.501-1.725,1.019-3.091,1.157-3.051
						c0.138,0.04-0.156,1.471-0.657,3.196C203.563,177.578,203.045,178.944,202.907,178.904z"/>
				</g>
				<g>
					<path style="fill:#FAFAFA;" d="M202.786,190.08c-0.06,0.125-1.41-0.42-2.852-1.47c-1.446-1.045-2.383-2.16-2.283-2.255
						c0.105-0.106,1.181,0.817,2.589,1.834C201.643,189.211,202.854,189.947,202.786,190.08z"/>
				</g>
				<g>
					<path style="fill:#FAFAFA;" d="M207.622,191.565c-0.139-0.039,0.114-1.367,0.565-2.965c0.45-1.599,0.928-2.864,1.066-2.825
						c0.138,0.039-0.114,1.367-0.565,2.966C208.238,190.339,207.761,191.604,207.622,191.565z"/>
				</g>
			</g>
		</g>
		<g>
			<g>
				<g>
					<g>
						<path style="fill:#E8505B;" d="M240.724,443.454c3.742-0.115,6.78-3.053,7.011-6.789
							c2.112-34.099,7.413-185.954,6.574-200.149l-4.646-18.408l-49.729-2.334c0,0-7.338,17.264-9.14,24.837
							c-1.615,6.787-39.551,157.887-45.219,188.422c-0.582,3.135,1.292,6.198,4.346,7.116L240.724,443.454z"/>
					</g>
				</g>
			</g>
			<g>
				<path style="fill:#FAFAFA;" d="M254.534,257.294c0.009-0.001,0.017,0.114,0.025,0.34c0.006,0.226,0.029,0.563-0.027,1.002
					c-0.073,0.876-0.356,2.18-1.159,3.665c-0.813,1.471-2.142,3.097-4.043,4.547c-1.882,1.484-4.362,2.662-7.122,3.784
					c-2.745,1.151-5.86,2.229-8.741,4.185c-2.895,1.928-5.453,4.724-7.489,8.064c-4.142,6.714-6.114,15.276-9.276,23.809
					c-3.011,8.684-8.648,15.74-14.639,20.859c-3.023,2.55-6.074,4.775-9.128,6.523c-1.486,0.944-3.025,1.672-4.463,2.442
					c-1.461,0.727-2.905,1.339-4.267,1.952c-5.536,2.27-10.263,3.439-13.556,3.978c-1.636,0.345-2.936,0.418-3.806,0.536
					c-0.414,0.043-0.743,0.077-0.994,0.103c-0.224,0.02-0.339,0.026-0.34,0.018c-0.001-0.009,0.113-0.033,0.335-0.07
					c0.249-0.039,0.575-0.09,0.987-0.155c0.864-0.151,2.157-0.256,3.782-0.631c3.271-0.599,7.962-1.817,13.451-4.119
					c1.35-0.621,2.782-1.24,4.23-1.972c1.425-0.775,2.95-1.507,4.422-2.454c3.026-1.753,6.045-3.976,9.036-6.515
					c5.931-5.108,11.479-12.072,14.465-20.678c3.148-8.485,5.136-17.081,9.355-23.878c2.075-3.379,4.697-6.224,7.659-8.172
					c2.952-1.98,6.097-3.04,8.842-4.167c2.764-1.099,5.216-2.237,7.084-3.675c1.889-1.406,3.217-2.985,4.043-4.414
					c0.815-1.443,1.125-2.716,1.231-3.578C254.543,257.76,254.496,257.294,254.534,257.294z"/>
			</g>
			<g>
				<path style="fill:#FAFAFA;" d="M250.729,343.103c0.009,0.002-0.007,0.103-0.047,0.299c-0.049,0.224-0.111,0.511-0.189,0.87
					c-0.097,0.379-0.279,0.829-0.464,1.372c-0.257,0.511-0.502,1.132-0.921,1.751c-1.521,2.563-4.914,5.574-9.905,7.479
					c-2.48,0.987-5.34,1.623-8.398,2.19c-3.057,0.586-6.347,1.102-9.675,2.114c-1.66,0.509-3.326,1.151-4.919,2.013
					c-1.6,0.852-3.078,1.983-4.468,3.25c-2.765,2.577-5.003,5.841-7.15,9.245c-2.154,3.406-4.194,6.809-6.615,9.787
					c-2.429,2.969-5.318,5.392-8.395,7.115c-3.066,1.75-6.275,2.86-9.348,3.45c-3.074,0.59-6.007,0.773-8.663,0.581
					c-5.33-0.359-9.432-1.98-12.043-3.348c-0.648-0.362-1.239-0.657-1.721-0.962c-0.461-0.32-0.857-0.595-1.187-0.824
					c-0.298-0.212-0.536-0.382-0.723-0.515c-0.161-0.118-0.241-0.182-0.235-0.189s0.096,0.043,0.267,0.146
					c0.193,0.121,0.441,0.277,0.75,0.471c0.337,0.217,0.739,0.476,1.209,0.778c0.488,0.289,1.083,0.569,1.734,0.914
					c2.621,1.304,6.701,2.853,11.973,3.161c2.627,0.167,5.524-0.037,8.553-0.637c3.03-0.601,6.188-1.711,9.198-3.445
					c3.024-1.71,5.846-4.09,8.236-7.02c2.385-2.944,4.411-6.328,6.571-9.744c2.152-3.411,4.417-6.715,7.242-9.339
					c1.42-1.291,2.939-2.446,4.579-3.314c1.633-0.878,3.332-1.526,5.016-2.035c3.378-1.013,6.682-1.513,9.736-2.08
					c3.06-0.548,5.889-1.157,8.345-2.109c4.948-1.84,8.315-4.755,9.866-7.244c0.426-0.601,0.68-1.206,0.95-1.704
					c0.197-0.53,0.393-0.97,0.506-1.341c0.098-0.351,0.177-0.632,0.238-0.851C250.687,343.199,250.72,343.101,250.729,343.103z"/>
			</g>
			<g>
				<path style="fill:#FAFAFA;" d="M250.729,415.272c0.004,0.008-0.08,0.056-0.248,0.142c-0.197,0.096-0.445,0.218-0.755,0.37
					c-0.685,0.257-1.724,0.675-3.146,0.728c-1.417,0.094-3.144-0.254-5.023-0.916c-1.881-0.666-3.934-1.623-6.294-2.403
					c-4.703-1.595-10.834-1.816-17.185-0.088c-6.401,1.604-12.891,4.958-19.506,8.716c-6.628,3.736-13.072,7.284-19.5,9.065
					c-6.388,1.938-12.623,1.614-17.434,0.229c-2.418-0.696-4.496-1.674-6.189-2.736c-1.659-1.115-2.969-2.249-3.886-3.316
					c-0.504-0.492-0.821-1.041-1.159-1.461c-0.34-0.422-0.551-0.83-0.734-1.15c-0.168-0.3-0.302-0.541-0.409-0.732
					c-0.089-0.166-0.131-0.253-0.123-0.257c0.008-0.004,0.065,0.074,0.17,0.232c0.118,0.183,0.266,0.415,0.452,0.703
					c0.197,0.309,0.42,0.705,0.77,1.113c0.348,0.407,0.673,0.94,1.184,1.416c0.929,1.035,2.242,2.13,3.892,3.207
					c1.684,1.023,3.742,1.964,6.134,2.628c4.762,1.32,10.9,1.603,17.201-0.336c6.35-1.787,12.746-5.32,19.377-9.059
					c6.615-3.759,13.167-7.132,19.64-8.727c6.424-1.724,12.668-1.462,17.421,0.203c2.38,0.812,4.424,1.794,6.277,2.478
					c1.85,0.68,3.53,1.048,4.916,0.987c1.391-0.021,2.423-0.4,3.114-0.623c0.316-0.131,0.57-0.237,0.77-0.321
					C250.633,415.296,250.725,415.264,250.729,415.272z"/>
			</g>
			<g>
				<path style="fill:#FAFAFA;" d="M224.428,216.891c0.018,0.001,0.017,0.184-0.001,0.533c-0.027,0.347-0.033,0.864-0.124,1.521
					c-0.139,1.318-0.468,3.218-1.138,5.498c-1.303,4.536-4.327,10.649-9.72,15.589c-5.398,4.938-11.755,7.41-16.389,8.307
					c-2.33,0.466-4.252,0.627-5.577,0.648c-0.662,0.033-1.178-0.007-1.526-0.011c-0.348-0.013-0.531-0.028-0.531-0.046
					c0-0.045,0.732-0.059,2.047-0.146c1.314-0.083,3.214-0.298,5.51-0.806c4.568-0.98,10.802-3.472,16.114-8.331
					c5.307-4.861,8.34-10.85,9.72-15.313c0.708-2.242,1.09-4.115,1.29-5.417C224.305,217.616,224.383,216.888,224.428,216.891z"/>
			</g>
			<g style="opacity:0.2;">
				<path d="M191.159,297.535c-7.044,32.507-8.41,64.469-2.679,96.98c1.103,6.255,4.772,15.763,4.772,15.763
					c6.243,1.843,12.377-4.613,12.971-11.095c0.594-6.482-2.462-12.659-5.049-18.632c-11.376-26.263-14.102-55.575-9.092-83.754"/>
			</g>
			<g>
				<path style="fill:#263238;" d="M199.571,424.74c-0.008,0.004-0.082-0.121-0.22-0.369c-0.147-0.271-0.346-0.639-0.601-1.109
					c-0.527-0.976-1.303-2.417-2.183-4.333c-1.805-3.805-4.165-9.453-6.291-16.691c-2.122-7.234-3.938-16.065-4.94-25.985
					c-0.51-4.959-0.798-10.188-0.872-15.611c-0.072-5.418-0.075-11.032,0.134-16.778c0.394-11.499,1.693-22.415,3.566-32.203
					c1.841-9.798,4.162-18.478,6.308-25.698c1.125-3.595,2.107-6.859,3.112-9.678c0.971-2.83,1.79-5.273,2.555-7.237
					c0.737-1.951,1.312-3.474,1.713-4.537c0.194-0.499,0.346-0.888,0.458-1.175c0.106-0.264,0.164-0.397,0.173-0.394
					c0.008,0.003-0.033,0.143-0.123,0.413c-0.1,0.291-0.236,0.687-0.409,1.193c-0.38,1.07-0.924,2.604-1.621,4.569
					c-0.735,1.973-1.526,4.424-2.469,7.26c-0.979,2.825-1.935,6.093-3.036,9.69c-2.098,7.224-4.378,15.899-6.189,25.681
					c-1.844,9.772-3.125,20.66-3.518,32.134c-0.208,5.734-0.21,11.34-0.144,16.753c0.067,5.409,0.345,10.624,0.84,15.57
					c0.973,9.895,2.746,18.704,4.816,25.931c2.075,7.229,4.377,12.883,6.121,16.707c0.851,1.925,1.596,3.379,2.092,4.37
					c0.235,0.481,0.419,0.856,0.555,1.133C199.52,424.602,199.579,424.735,199.571,424.74z"/>
			</g>
		</g>
		<g>
			<path style="fill:#EB996E;" d="M260.566,198.066c-0.023,0.142-4.161-0.395-9.241-1.2c-5.082-0.805-9.183-1.572-9.161-1.715
				c0.022-0.142,4.16,0.395,9.242,1.2C256.487,197.157,260.588,197.924,260.566,198.066z"/>
		</g>
	</g>
</g>
<g id="Plant">
	<g>
		<g>
			<g>
				<g>
					<g>
						<g>
							<g>
								<g>
									<path style="fill:#263238;" d="M107.159,444.449c0.009-0.005-0.049-0.144-0.17-0.409c-0.136-0.289-0.318-0.677-0.549-1.172
										c-0.467-1.035-1.074-2.603-1.614-4.689c-1.068-4.169-1.441-10.541,0.138-18.108c0.733-3.789,1.915-7.854,3.358-12.163
										c1.422-4.317,3.073-8.897,4.421-13.848c1.334-4.939,2.386-10.301,2.183-15.922c-0.205-5.632-1.872-11.253-3.706-16.849
										c-1.83-5.605-3.722-11.083-4.289-16.593c-0.641-5.5,0.536-10.9,3.042-15.325c2.427-4.471,5.48-8.296,7.766-12.257
										c2.321-3.948,3.772-8.008,4.667-11.784c1.735-7.613,1.127-14.028,0.296-18.255c-0.901-4.25-1.905-6.447-1.905-6.447
										c-0.009,0.004,0.029,0.149,0.113,0.428c0.095,0.305,0.223,0.714,0.386,1.236c0.336,1.086,0.771,2.708,1.184,4.826
										c0.759,4.219,1.296,10.589-0.474,18.118c-0.912,3.734-2.371,7.74-4.683,11.634c-2.28,3.914-5.347,7.723-7.822,12.247
										c-2.559,4.473-3.789,10.049-3.137,15.636c0.571,5.604,2.477,11.119,4.303,16.716c1.833,5.591,3.481,11.154,3.689,16.691
										c0.208,5.534-0.819,10.845-2.131,15.76c-1.326,4.927-2.958,9.508-4.362,13.837c-1.425,4.322-2.593,8.419-3.304,12.235
										c-1.537,7.624-1.099,14.059,0.046,18.243c0.579,2.094,1.224,3.659,1.727,4.682c0.254,0.485,0.454,0.866,0.603,1.15
										C107.075,444.325,107.15,444.454,107.159,444.449z"/>
								</g>
							</g>
						</g>
					</g>
				</g>
				<g>
					<g>
						<g>
							<g>
								<g>
									<path style="fill:#E8505B;" d="M114.635,321.023c0,0,4.64-14.839-3.684-23.527c-0.292-0.305-0.807-0.161-0.882,0.255
										C109.625,300.201,109.07,307.665,114.635,321.023z"/>
								</g>
							</g>
						</g>
					</g>
					<g>
						<g>
							<g>
								<g>
									<g>
										<path style="fill:#263238;" d="M111.855,302.44c-0.079,0.016,0.054,1.06,0.313,2.738c0.305,1.886,0.663,4.099,1.059,6.545
											c0.388,2.446,0.74,4.659,1.039,6.545c0.254,1.676,0.407,2.715,0.492,2.708c0.075-0.006,0.067-1.062-0.083-2.758
											c-0.154-1.695-0.453-4.028-0.873-6.588c-0.418-2.56-0.865-4.866-1.228-6.526
											C112.21,303.442,111.934,302.425,111.855,302.44z"/>
									</g>
								</g>
							</g>
						</g>
					</g>
				</g>
				<g>
					<g>
						<g>
							<g>
								<g>
									<path style="fill:#E8505B;" d="M109.184,356.02c0,0-2.838-15.286-14.259-19.073c-0.401-0.133-0.788,0.235-0.66,0.638
										C95.018,339.959,98.018,346.816,109.184,356.02z"/>
								</g>
							</g>
						</g>
					</g>
					<g>
						<g>
							<g>
								<g>
									<g>
										<path style="fill:#263238;" d="M98.037,340.895c-0.062,0.051,0.543,0.911,1.556,2.274c1.151,1.524,2.503,3.313,3.996,5.29
											c1.487,1.98,2.833,3.772,3.979,5.299c1.008,1.363,1.629,2.21,1.701,2.164c0.064-0.04-0.437-0.97-1.363-2.399
											c-0.928-1.427-2.284-3.349-3.853-5.415c-1.567-2.067-3.04-3.896-4.138-5.194
											C98.819,341.614,98.099,340.845,98.037,340.895z"/>
									</g>
								</g>
							</g>
						</g>
					</g>
				</g>
				<g>
					<g>
						<g>
							<g>
								<g>
									<path style="fill:#E8505B;" d="M112.271,394.368c0,0,1.724-15.451-8.104-22.392c-0.345-0.244-0.823-0.004-0.817,0.418
										C103.38,374.885,104.259,382.318,112.271,394.368z"/>
								</g>
							</g>
						</g>
					</g>
					<g>
						<g>
							<g>
								<g>
									<g>
										<path style="fill:#263238;" d="M105.996,376.658c-0.074,0.03,0.255,1.03,0.829,2.628c0.659,1.793,1.433,3.898,2.288,6.223
											c0.848,2.327,1.615,4.432,2.268,6.226c0.569,1.597,0.917,2.588,0.999,2.565c0.073-0.02-0.136-1.055-0.608-2.691
											c-0.474-1.635-1.213-3.868-2.114-6.301c-0.899-2.433-1.778-4.611-2.451-6.172
											C106.535,377.573,106.071,376.627,105.996,376.658z"/>
									</g>
								</g>
							</g>
						</g>
					</g>
				</g>
				<g>
					<g>
						<g>
							<g>
								<g>
									<path style="fill:#E8505B;" d="M103.668,432.941c0,0,1.17-15.503-8.901-22.087c-0.354-0.231-0.822,0.026-0.802,0.448
										C94.085,413.788,95.229,421.185,103.668,432.941z"/>
								</g>
							</g>
						</g>
					</g>
					<g>
						<g>
							<g>
								<g>
									<g>
										<path style="fill:#263238;" d="M96.763,415.466c-0.073,0.033,0.292,1.02,0.923,2.596c0.723,1.768,1.572,3.844,2.509,6.137
											c0.93,2.295,1.773,4.372,2.49,6.141c0.626,1.575,1.009,2.553,1.09,2.527c0.072-0.022-0.174-1.049-0.704-2.668
											c-0.532-1.617-1.35-3.822-2.338-6.221c-0.986-2.399-1.942-4.544-2.67-6.08C97.335,416.361,96.836,415.433,96.763,415.466z
											"/>
									</g>
								</g>
							</g>
						</g>
					</g>
				</g>
				<g>
					<g>
						<g>
							<g>
								<g>
									<path style="fill:#E8505B;" d="M121.304,307.986c0,0,13.781-7.197,14.051-19.226c0.009-0.422-0.456-0.684-0.803-0.444
										C132.503,289.731,126.828,294.611,121.304,307.986z"/>
								</g>
							</g>
						</g>
					</g>
					<g>
						<g>
							<g>
								<g>
									<g>
										<path style="fill:#263238;" d="M132.494,292.892c-0.067-0.045-0.712,0.786-1.717,2.155
											c-1.119,1.548-2.433,3.365-3.885,5.372c-1.457,2.003-2.776,3.815-3.899,5.358c-1.007,1.363-1.635,2.206-1.57,2.261
											c0.057,0.049,0.799-0.702,1.893-2.007c1.092-1.306,2.532-3.165,4.047-5.272c1.516-2.105,2.833-4.049,3.752-5.479
											C132.035,293.85,132.561,292.936,132.494,292.892z"/>
									</g>
								</g>
							</g>
						</g>
					</g>
				</g>
				<g>
					<g>
						<g>
							<g>
								<g>
									<path style="fill:#E8505B;" d="M106.506,339.853c0,0,14.193-6.347,15.193-18.337c0.035-0.421-0.414-0.711-0.775-0.492
										C118.793,322.313,112.832,326.838,106.506,339.853z"/>
								</g>
							</g>
						</g>
					</g>
					<g>
						<g>
							<g>
								<g>
									<g>
										<path style="fill:#263238;" d="M118.592,325.466c-0.064-0.049-0.758,0.742-1.845,2.047
											c-1.211,1.477-2.633,3.211-4.204,5.126c-1.576,1.91-3.002,3.639-4.217,5.112c-1.088,1.3-1.766,2.102-1.704,2.161
											c0.054,0.053,0.84-0.652,2.012-1.888c1.169-1.238,2.719-3.006,4.36-5.016c1.641-2.009,3.074-3.87,4.078-5.242
											C118.076,326.395,118.655,325.515,118.592,325.466z"/>
									</g>
								</g>
							</g>
						</g>
					</g>
				</g>
				<g>
					<g>
						<g>
							<g>
								<g>
									<path style="fill:#E8505B;" d="M114.672,375.399c0,0,9.745-12.114,5.174-23.245c-0.16-0.391-0.692-0.444-0.914-0.085
										C117.622,354.188,114.376,360.932,114.672,375.399z"/>
								</g>
							</g>
						</g>
					</g>
					<g>
						<g>
							<g>
								<g>
									<g>
										<path style="fill:#263238;" d="M118.879,357.087c-0.079-0.014-0.337,1.006-0.71,2.662
											c-0.406,1.867-0.882,4.058-1.408,6.479c-0.533,2.418-1.015,4.607-1.426,6.471c-0.376,1.653-0.615,2.675-0.533,2.7
											c0.072,0.022,0.451-0.964,0.931-2.598c0.477-1.634,1.052-3.915,1.596-6.451c0.547-2.536,0.974-4.845,1.243-6.524
											C118.843,358.149,118.958,357.101,118.879,357.087z"/>
									</g>
								</g>
							</g>
						</g>
					</g>
				</g>
				<g>
					<g>
						<g>
							<g>
								<g>
									<path style="fill:#E8505B;" d="M105.019,417.23c0,0,14.084-6.584,14.883-18.59c0.028-0.422-0.425-0.704-0.783-0.479
										C117.011,399.486,111.126,404.111,105.019,417.23z"/>
								</g>
							</g>
						</g>
					</g>
					<g>
						<g>
							<g>
								<g>
									<g>
										<path style="fill:#263238;" d="M116.862,402.642c-0.065-0.048-0.746,0.755-1.81,2.077
											c-1.186,1.497-2.579,3.255-4.117,5.196c-1.544,1.937-2.94,3.689-4.13,5.182c-1.066,1.318-1.73,2.131-1.668,2.19
											c0.055,0.052,0.829-0.666,1.98-1.922c1.148-1.257,2.668-3.051,4.275-5.089c1.608-2.036,3.008-3.921,3.989-5.309
											C116.362,403.579,116.927,402.69,116.862,402.642z"/>
									</g>
								</g>
							</g>
						</g>
					</g>
				</g>
				<g>
					<g>
						<g>
							<g>
								<g>
									<g>
										<path style="fill:#263238;" d="M76.966,356.103c-0.013,0.001-0.019,0.117-0.018,0.342
											c0.007,0.271,0.015,0.597,0.025,0.994c0.041,0.934,0.097,2.196,0.167,3.77c0.182,3.314,0.435,7.935,0.738,13.463
											l0.001,0.013l0.003,0.019c1.005,5.626,3.871,11.861,7.719,17.915c2.823,4.46,5.782,8.514,8.335,12.285
											c2.569,3.76,4.737,7.243,6.249,10.329c1.521,3.082,2.406,5.73,2.923,7.58c0.248,0.929,0.434,1.653,0.541,2.149
											c0.116,0.493,0.186,0.752,0.206,0.748c0.02-0.003-0.012-0.268-0.091-0.771c-0.07-0.505-0.221-1.24-0.437-2.183
											c-0.453-1.878-1.285-4.571-2.772-7.702c-1.477-3.136-3.625-6.665-6.175-10.45c-2.535-3.798-5.478-7.859-8.287-12.296
											c-3.828-6.024-6.679-12.165-7.722-17.7l0.004,0.032c-0.388-5.522-0.713-10.139-0.945-13.45
											c-0.127-1.57-0.229-2.829-0.304-3.761c-0.04-0.395-0.072-0.72-0.099-0.989C77,356.217,76.979,356.103,76.966,356.103z"/>
									</g>
								</g>
							</g>
						</g>
					</g>
					<g>
						<g>
							<g>
								<g>
									<g>
										<path style="fill:#E8505B;" d="M85.352,391.462c0,0-5.965-14.357,1.538-23.764c0.264-0.33,0.789-0.233,0.902,0.174
											C88.456,370.273,89.686,377.656,85.352,391.462z"/>
									</g>
								</g>
							</g>
						</g>
						<g>
							<g>
								<g>
									<g>
										<g>
											<path style="fill:#263238;" d="M86.438,372.704c-0.08-0.008-0.262,1.029-0.473,2.717
												c-0.211,1.687-0.447,4.023-0.632,6.61c-0.187,2.588-0.273,4.938-0.273,6.641c0.004,1.703,0.092,2.755,0.167,2.754
												c0.085-0.001,0.143-1.05,0.244-2.742c0.127-1.905,0.277-4.141,0.442-6.612c0.172-2.471,0.328-4.708,0.462-6.614
												C86.481,373.764,86.518,372.713,86.438,372.704z"/>
										</g>
									</g>
								</g>
							</g>
						</g>
						<g style="opacity:0.3;">
							<g>
								<g>
									<g>
										<path d="M85.352,391.462c0,0-5.965-14.357,1.538-23.764c0.264-0.33,0.789-0.233,0.902,0.174
											C88.456,370.273,89.686,377.656,85.352,391.462z"/>
									</g>
								</g>
							</g>
						</g>
					</g>
					<g>
						<g>
							<g>
								<g>
									<g>
										<path style="fill:#E8505B;" d="M103.827,426.061c0,0-4.781-14.794,3.46-23.561c0.289-0.308,0.805-0.169,0.884,0.246
											C108.639,405.193,109.266,412.651,103.827,426.061z"/>
									</g>
								</g>
							</g>
						</g>
						<g>
							<g>
								<g>
									<g>
										<g>
											<path style="fill:#263238;" d="M106.431,407.453c-0.079-0.015-0.345,1.005-0.692,2.669
												c-0.347,1.664-0.772,3.974-1.166,6.538c-0.396,2.564-0.673,4.9-0.81,6.596c-0.134,1.698-0.132,2.754-0.057,2.759
												c0.085,0.006,0.227-1.035,0.466-2.713c0.281-1.888,0.612-4.105,0.977-6.554c0.372-2.449,0.709-4.666,0.996-6.554
												C106.387,408.513,106.51,407.468,106.431,407.453z"/>
										</g>
									</g>
								</g>
							</g>
						</g>
						<g style="opacity:0.3;">
							<g>
								<g>
									<g>
										<path d="M103.827,426.061c0,0-4.781-14.794,3.46-23.561c0.289-0.308,0.805-0.169,0.884,0.246
											C108.639,405.193,109.266,412.651,103.827,426.061z"/>
									</g>
								</g>
							</g>
						</g>
					</g>
					<g>
						<g>
							<g>
								<g>
									<g>
										<path style="fill:#E8505B;" d="M77.756,373.916c0,0-12.737-8.916-11.451-20.879c0.045-0.42,0.54-0.62,0.854-0.337
											C69.007,354.368,74.005,359.94,77.756,373.916z"/>
									</g>
								</g>
							</g>
						</g>
						<g style="opacity:0.3;">
							<g>
								<g>
									<g>
										<path d="M77.756,373.916c0,0-12.737-8.916-11.451-20.879c0.045-0.42,0.54-0.62,0.854-0.337
											C69.007,354.368,74.005,359.94,77.756,373.916z"/>
									</g>
								</g>
							</g>
						</g>
						<g>
							<g>
								<g>
									<g>
										<g>
											<path style="fill:#263238;" d="M68.609,357.503c-0.072,0.036,0.331,1.01,1.058,2.546
												c0.727,1.537,1.781,3.635,3.013,5.918c1.23,2.285,2.418,4.314,3.332,5.75c0.917,1.435,1.556,2.276,1.618,2.235
												c0.071-0.047-0.443-0.962-1.265-2.445c-0.914-1.676-1.988-3.643-3.174-5.817c-1.181-2.178-2.249-4.15-3.159-5.829
												C69.213,358.375,68.681,357.468,68.609,357.503z"/>
										</g>
									</g>
								</g>
							</g>
						</g>
					</g>
					<g>
						<g>
							<g>
								<g>
									<g>
										<path style="fill:#E8505B;" d="M98.691,411.395c0,0-15.362-2.395-19.477-13.702c-0.144-0.397,0.212-0.795,0.619-0.679
											C82.228,397.698,89.169,400.499,98.691,411.395z"/>
									</g>
								</g>
							</g>
						</g>
						<g style="opacity:0.3;">
							<g>
								<g>
									<g>
										<path d="M98.691,411.395c0,0-15.362-2.395-19.477-13.702c-0.144-0.397,0.212-0.795,0.619-0.679
											C82.228,397.698,89.169,400.499,98.691,411.395z"/>
									</g>
								</g>
							</g>
						</g>
						<g>
							<g>
								<g>
									<g>
										<g>
											<path style="fill:#263238;" d="M83.251,400.689c-0.049,0.064,0.742,0.76,2.072,1.819c1.329,1.06,3.2,2.479,5.312,3.986
												c2.111,1.509,4.071,2.808,5.524,3.695c1.455,0.885,2.399,1.358,2.438,1.293c0.043-0.073-0.821-0.669-2.212-1.638
												c-1.559-1.102-3.389-2.395-5.412-3.824c-2.019-1.436-3.847-2.735-5.403-3.842
												C84.177,401.205,83.299,400.625,83.251,400.689z"/>
										</g>
									</g>
								</g>
							</g>
						</g>
					</g>
				</g>
			</g>
			<g>
				<g>
					<g>
						<g>
							<polygon style="fill:#455A64;" points="116.867,439.665 112.461,468.567 94.865,468.537 88.937,439.665 							"/>
						</g>
					</g>
				</g>
			</g>
		</g>
		<g>
			<g>
				<path style="fill:#263238;" d="M100.807,448.943c0.451-0.684,0.765-1.511,0.816-2.418c0.066-0.885-0.281-1.96-1.194-2.485
					c-0.91-0.525-2.083-0.335-2.948,0.243c-0.905,0.587-1.433,1.615-1.686,2.654c-0.253,1.055-0.281,2.154-0.219,3.265
					c0.072,1.111,0.277,2.25,0.714,3.338c0.426,1.088,1.112,2.117,2.04,2.91c0.923,0.789,2.108,1.355,3.386,1.414
					c1.279,0.057,2.501-0.385,3.522-1.023c1.027-0.645,1.9-1.462,2.628-2.375c0.721-0.914,1.264-2.007,1.331-3.175
					c0.056-1.147-0.348-2.341-1.249-3.061c-0.913-0.741-2.207-0.688-3.118-0.19c-0.938,0.473-1.635,1.371-1.799,2.356
					c-0.338,1.983,0.819,3.771,2.225,4.575c1.44,0.822,3.006,0.846,4.248,0.614c1.262-0.246,2.257-0.742,3.027-1.185
					c0.77-0.451,1.324-0.864,1.695-1.148c0.369-0.286,0.553-0.45,0.543-0.462c-0.011-0.014-0.214,0.123-0.6,0.383
					c-0.388,0.257-0.957,0.643-1.73,1.063c-0.772,0.412-1.762,0.872-2.982,1.083c-1.204,0.201-2.699,0.144-4.027-0.642
					c-1.291-0.753-2.332-2.446-2.006-4.204c0.151-0.864,0.765-1.638,1.599-2.055c0.818-0.433,1.9-0.456,2.649,0.161
					c0.753,0.603,1.122,1.663,1.065,2.689c-0.063,1.034-0.557,2.046-1.243,2.908c-0.692,0.865-1.54,1.654-2.508,2.259
					c-0.967,0.602-2.094,1.001-3.247,0.949c-1.15-0.053-2.237-0.564-3.097-1.297c-0.864-0.738-1.506-1.691-1.913-2.721
					c-0.417-1.028-0.619-2.119-0.692-3.192c-0.066-1.073-0.04-2.145,0.191-3.13c0.231-0.976,0.71-1.896,1.489-2.406
					c0.761-0.518,1.776-0.672,2.514-0.249c0.751,0.424,1.067,1.309,1.021,2.123c-0.035,0.822-0.318,1.606-0.729,2.245
					c-0.865,1.275-2.123,2.059-3.28,2.458c-1.169,0.411-2.262,0.462-3.127,0.373c-1.752-0.199-2.575-0.842-2.6-0.772
					c-0.004,0.007,0.045,0.043,0.147,0.107c0.103,0.06,0.252,0.163,0.463,0.265c0.421,0.206,1.076,0.464,1.967,0.587
					c0.886,0.121,2.015,0.098,3.235-0.304C98.539,451.077,99.862,450.293,100.807,448.943"/>
			</g>
		</g>
	</g>
</g>
</svg>
